/* XPM */
static char *result[] = {
/* columns rows colors chars-per-pixel */
"64 64 51 1 ",
"  c #010101",
". c #080707",
"X c #090807",
"o c #0C0A09",
"O c #110E0D",
"+ c #14110F",
"@ c #161211",
"# c #1B1615",
"$ c #1C1817",
"% c #1F1B19",
"& c #221D1B",
"* c #26211E",
"= c #28211F",
"- c #272120",
"; c #2B2322",
": c #2F2825",
"> c #312927",
", c #342C29",
"< c #382F2C",
"1 c #3B312E",
"2 c #3D3330",
"3 c #413632",
"4 c #443A36",
"5 c #4B3F3B",
"6 c #4D413D",
"7 c #50433F",
"8 c #544743",
"9 c #554944",
"0 c #594B46",
"q c #5D4D49",
"w c #5F504B",
"e c #604F4A",
"r c #63534D",
"t c #655651",
"y c #685751",
"u c #6B5A54",
"i c #6F5F58",
"p c #705D57",
"a c #715F5A",
"s c #73615B",
"d c #78655F",
"f c #7E6A63",
"g c #836E67",
"h c #857069",
"j c #8A756D",
"k c #8D786F",
"l c #947D75",
"z c #9C837B",
"x c #A0867E",
"c c #A1887F",
"v c #A18880",
/* pixels */
"               .X X. .. X.  .  .  . .. . .                      ",
" *4444444444@ +@+@O@+++@++ @233233221221 .@@@@@@@@@@#@ &111111% ",
" ygggggggggg2occccccccccccX1ggggggggggggo%ccvcccccvvcz uggggggq ",
" ygggggggggg2occcccccccccc.3ggggggggggggo&cccccccccccc pgggggg0 ",
" ygggggggggg2ovccccccccccc 3ggggggggggggo%zccccccccccc aggggggq ",
" ygggggggggg2occcccccccccc.3ggggggggggggo%vvcccccccccc uggggggq ",
" ygggggggggg2occcccccccccc.2gggggghgggggo%cccccccccccc pggggggq ",
" ygggggggggh2occcccccccccc 2ggggggggggggo%cccccccccccz ugggggg0 ",
"                                                                ",
" 4ssssO&wwwwqwrrrrr@ -----&&----- X,,<,,#;,,,,> whhhhhdggggggg5 ",
" accvv%2ggggggggggg*occcccccvcccv &gggggggggggf jvccccccccccccg ",
" acccc%2ggggggggggg&Xcccccccccccv &gggggggggggf jcccccccccccccf ",
" acccc&2ggggggggggg&Xcccccccccccc &gggggggggggf jcccccccccccccg ",
" acccc%1ggggggggggg&Xcccccccvvccv &gggggggggggf jvccccccccccccf ",
" acccc%2ggggggggggg&Xcccccccvvccv &gggggggggggg jcccccccccccccg ",
" 9llll@;dfsfsaaaaaa# 555561466567 O655551455554 tkkkkkhjkkjkkj0 ",
"                                                                ",
" 0fgfgffggfg>*zzzzzlzzzzzz%:ffffffffffffX9zzzzzzzzzzzl 0ffffff6 ",
" ygggggggggg2>cccccccccccc&<ggggggggggggoycccccccczvcc uggggggq ",
" ygggggggggg2>cccccccccccc&<ggggggggggggXyccccccccvvvz ugggggg0 ",
" ygggggggggg2>cccccccccccc*<ggggggggggggXyvvcccccccccc uggggggq ",
" ygggggggggg2>cccccccccccc*1ggggggggggggXyvvcccccccccc uggggggq ",
" ygggggggggg1>vccccccvcccc&1ggggggggggggoyzvccccczvccc uggggggq ",
" :7787567777#@rrrrrqwrtrrr+#777785888888.>rtrrrrsfdddi 1qqqqqq: ",
" .oooo .XXXoooXXoXX .XXooooXXoXo. .XooooooXoXoX X@++++oooXooXo. ",
" acccc&1ggggggggggg*3cccccccccccv@wcccccccccccc sgggggggggggggy ",
" accvv%2ggggggggggg*4cccccccccccc@wcccccccccccc sgggggggggggggy ",
" accvz%2ggggggggggg&3cccccccccccc@wcccccccccccc sgggggggggggggy ",
" acccc%2ggggggggggg*2vccccccccccc+wcccccccccccc sggggggggghgggy ",
" acccc%2ggggggggggg*4vccccccccccc+wcccccccccccc agggggggggggggy ",
" acccc&1ggggggggggg-3ccccccccccxc@wcccccccccccx sgggggghggggggy ",
" %3324X@3333,:>>>,>o@333331133333X%33323<233333 &>>,>,-;;;;;;-# ",
" X@@@#o@====X OOOOo..OOOoO  OOoOO X+oOOO .OOOOO.oOOOOo &,,,,<,% ",
" 6vcccvccccc;#gggggggggggg.@cccccccccccz =gggggggggggs gcccccca ",
" 5cccccccccc;#gggggggggggg.+cccccccccccc &gggggggggggs fcccccca ",
" 6cccccccccc;%gggggggggggg.+cccccccccccc *gggggggggggs gcccccca ",
" 6cccccccccc:#gggggggggghgX@cccccccccccc *gggggggggggd fcccccca ",
" 5cccccccccc;#gggggggggggg.@cccccccccccc &gggggggggggs gcccccca ",
" 6cccccvcccc:#gggggggggggg.+cccccccccccc *gggggggggggs gcccccca ",
"              XXXXo  .....  ooXoo                      ooooooo. ",
" 1yyyy@o>>>>>>12111o+44445;167677 X&&&%&O#%&%%% 4susssrassssss1 ",
" scczv-<ggggggggggg&;cvvccccccccc #gggggggggggf jccccccccccczcg ",
" svcvv-<ggggggggggg&>cccccccccccc #gggggggggggf jcccccccccccccf ",
" svvvz-,ggggggggggg&;cccccccccccc #ghgggggggggf hcccccccccccczg ",
" sccvc=<ggggggggggg&;cccccccccccc #gggggggggggf jcccccccccccccg ",
" scvcc*<ggggggggggg&;cccvvccccccv #gggggggggggf hcccczccccczccf ",
" tzczz&;ppauuqrrrrr@&sdsssughghhh @sppaureqqrq0 azzzzzzzzzzzzzu ",
"                                                                ",
" -uuuuryuuuuo 444442344444 oytutu7ryyuyu.#22222>12121> qkjkjkk8 ",
" 6cvcccccccc$ogggggggggggg.@cccccczcccccX<gggggggggggi fcccccca ",
" 6cccccccccc#ogggggggggggg.OccccccccccccX<gggggggggggs fcccccca ",
" 6cccccccccc#ogggggggggggg.OccccccccccccX1gggggggggggs fcccccca ",
" 6cccccccccc$Xgggggggggggg.OccccccccccccX1gggggggggggs fccvvcca ",
" 6cccccccccc#ogggggggggggg.OcccccccccvccX1gggggggggggs fccvzcca ",
" @1111*&----. :::::&#&&&&& .11111&*-----.O>:::>&22222> 6gggggg4 ",
"                                                                ",
" svvvv%1ggggggggggg&Xcccccccccccc @gggggggggggf hvvvvvvcvvvvvvf ",
" scccv%2ggggghggggg&.cccccccccccc oghgggggggggf hcccccccccccccf ",
" scccc%1ggggggggghg&.cccccccccccc ogggggggggggf jvccccccccccccg ",
" scccc%2ggggggggggg&.cccccccccccc @gggggggggggf hcccccccccccccf ",
" fzvcc&2ggggggggggg&.cccccccccccc ogggggggggggf jvvcccccccccccg ",
" svvcc%1ggggggggggg&.cccccccccccc @gggggggggggf jzccccccccccccf ",
" :6666o@11111111111o oooooooooooo  XXXXXXXXXXXX >8998888888888> ",
"o .  .                                                          "
};
