/* XPM */
static char *result[] = {
/* columns rows colors chars-per-pixel */
"64 64 117 2 ",
"   c #010101",
".  c #080503",
"X  c #0A0805",
"o  c #0B0A0A",
"O  c #130E0F",
"+  c #14110F",
"@  c #151211",
"#  c #1B1514",
"$  c #1E1A16",
"%  c #1E1919",
"&  c #211B16",
"*  c #211D1A",
"=  c #27211D",
"-  c #29211E",
";  c #292220",
":  c #2F2B27",
">  c #312A26",
",  c #362E2A",
"<  c #3A2F2D",
"1  c #39312E",
"2  c #2C2F34",
"3  c #3D3331",
"4  c #31363C",
"5  c #403634",
"6  c #453936",
"7  c #453938",
"8  c #4A3E3A",
"9  c #4F413E",
"0  c #51423F",
"q  c #544741",
"w  c #564A44",
"e  c #5C4D46",
"r  c #5F504D",
"t  c #4E5255",
"y  c #515457",
"u  c #5E5755",
"i  c #525559",
"p  c #55595B",
"a  c #5B5D5F",
"s  c #614F4B",
"d  c #62534D",
"f  c #645651",
"g  c #6C5B54",
"h  c #715E56",
"j  c #705F58",
"k  c #736059",
"l  c #7B675F",
"z  c #7B685E",
"x  c #5D5E60",
"c  c #636667",
"v  c #6E6E6D",
"b  c #706566",
"n  c #7B6760",
"m  c #747373",
"M  c #787473",
"N  c #7E7A79",
"B  c #836E66",
"V  c #846E68",
"C  c #85746F",
"Z  c #89746D",
"A  c #857570",
"S  c #8D7670",
"D  c #9F877F",
"F  c #9F887D",
"G  c #A2877C",
"H  c #A0887E",
"J  c #7B8389",
"K  c #5785BB",
"L  c #5D88BE",
"P  c #6089BD",
"I  c #5C85C1",
"U  c #5F89C1",
"Y  c #648DC2",
"T  c #6191CE",
"R  c #6998CF",
"E  c #6090D2",
"W  c #6B9AD3",
"Q  c #709FD3",
"!  c #6FA1D6",
"~  c #71A0D6",
"^  c #72A1D8",
"/  c #7FAAE6",
"(  c #848285",
")  c #88878C",
"_  c #8C898B",
"`  c #868C93",
"'  c #8A8D94",
"]  c #838F9A",
"[  c #87949F",
"{  c #8B929C",
"}  c #A18780",
"|  c #A68981",
" . c #8696A3",
".. c #8A96A3",
"X. c #8E99A5",
"o. c #8E9BA8",
"O. c #929BA5",
"+. c #929DA9",
"@. c #93A0A9",
"#. c #8AA7D2",
"$. c #8BAAD1",
"%. c #90ADD1",
"&. c #80AAE6",
"*. c #8BB7EF",
"=. c #8AB7F0",
"-. c #B9CBDE",
";. c #B7CBE1",
":. c #B8CAE2",
">. c #C9CFD4",
",. c #CAD1D7",
"<. c #C8D1D8",
"1. c #D4DDEF",
"2. c #D5DFF0",
"3. c #D5E0EE",
"4. c #E3E7F3",
"5. c #E2E9F3",
"6. c #FFFFFE",
/* pixels */
"                            . . . .   .   . . . . .       .     .   .   .     . .                                               ",
"  % , , , , , , a v v v a t x x x a x x x x a a x x y x m m m m m m m m m m m m y i a x a a a a a a a a a a y c , , , , , > &   ",
"  q B B n C B B ( ,.,.,.,.,.<.<.>.,.,.,.<.,.,.,.,.,.<.<.,.,.,.>.,.,.,.,.,.,.,.,.>.,.,.,.,.,.,.,.,.,.,.,.,.,.,. .V B B B B V 9   ",
"  9 B B B B B B _ 6.6.6.6.6.6.6.6.6.6.6.6.6.6.6.6.6.6.6.6.6.6.6.6.6.6.6.6.6.6.6.6.6.6.6.6.6.6.6.6.6.6.6.6.6.6.o.B B B B B B 9   ",
"  0 B B B B C B ' 6.6.6.6.6.6.6.6.6.6.6.6.6.6.6.6.6.6.6.6.6.6.6.6.6.6.6.6.6.6.6.6.6.6.6.6.6.6.6.6.6.6.6.6.6.6.X.B B B B B B 9   ",
"  q B B B B n B { 6.6.6.6.6.6.6.6.6.6.6.6.6.6.6.6.6.6.6.6.6.6.6.6.6.6.6.6.6.6.6.6.6.6.6.6.6.6.6.6.6.6.6.6.6.6.X.B B B B B B 9   ",
"  9 V V B V B B { 6.6.6.6.6.6.6.6.6.6.6.6.6.6.6.6.6.6.6.6.6.6.6.6.6.6.6.6.6.6.6.6.6.6.6.6.6.6.6.6.6.6.6.6.6.6...B B B B V B 0   ",
"  9 V V V V B V ) 6.6.6.6.6.6.6.6.6.6.6.6.6.6.6.6.6.6.6.6.6.6.6.6.6.6.6.6.6.6.6.6.6.6.6.6.6.6.6.6.6.6.6.6.6.6.O.B B B B B B 9   ",
"                4 6.6.6.6.6.$.I Y Y Y Y Y Y Y Y Y Y Y Y Y K -.6.6.-.K P Y Y Y Y Y Y Y Y T Y Y Y L $.6.6.6.6.6.{                 ",
"  3 f f f f O & u 6.6.6.6.6.$.&.=.=.=.=.=.=.=.=.=.=.=.=.=.W -.6.6.-.! *.=.=.=.=.=.=.=.=.=.=.=.*.&.$.6.6.6.6.6.X.d d f f f f 1   ",
"  d H H } F % , A 6.6.6.6.6.$.&.=.=.=.=.=.=.=.=.=.=.=.=.=.Q ;.6.6.-.~ *.=.=.=.=.=.=.=.=.=.=.=.=.&.$.6.6.6.6.6.@.H G H H H G d   ",
"  d F F } F % , C 6.6.6.6.6.$.&.=.=.=.=.=.=.=.=.=.=.=.=.=.Q :.6.6.;.~ *.=.=.*.=.=.=.=.=.=.=.=.=./ $.6.6.6.6.6.@.H H H H H H d   ",
"  d H H | G $ < C 6.6.6.6.6.$./ =.=.=.=.=.=.=.=.=.=.=.=.*.Q :.6.6.;.~ =.=.=.=.=.=.=.=.=.=.=.=.=.&.$.6.6.6.6.6.@.H H H H H G d   ",
"  d H H } G $ , A 6.6.6.6.6.$./ =.=.=.=.=.=.=.=.=.=.=.=.*.Q :.6.6.;.Q =.=.=.=.=.=.=.=.=.=.=.=.=.&.$.6.6.6.6.6.O.H G H H H G d   ",
"  d H H H H % , C 6.6.6.6.6.$./ =.=.=.=.=.=.=.=.=.=.=.=.*.Q -.6.6.-.! =.=.=.=.=.=.=.=.=.=.=.=.=./ $.6.6.6.6.6.O.G G G G G G d   ",
"  8 z l z l # ; b 6.6.6.6.6.$./ =.=.=.=.=.*.=.=.=.=.=.=.*.W :.6.6.;.! =.=.=.=.=.=.=.=.=.=.=.=.=./ $.6.6.6.6.6.O.B l l l l l 8   ",
"                2 6.6.6.6.6.$.&.=.=.=.=.=.=.=.=.*.=.=.=.=.W ;.6.6.:.Q =.=.=.=.=.=.=.=.=.=.=.=.=./ $.6.6.6.6.6.[                 ",
"  6 j j j j j j N 6.6.6.6.6.$./ =.=.=.=.=.=.=.=.=.=.=.=.*.! -.6.6.:.^ =.=.=.=.=.=.=.=.=.=.=.=.=.&.$.6.6.6.6.6...h j k g j k 6   ",
"  9 B B B B B V _ 6.6.6.6.6.$./ =.=.=.=.=.=.=.=.=.=.=.*.*.~ :.6.6.:.^ =.=.=.=.=.=.=.=.=.=.=.=.=./ $.6.6.6.6.6.O.V V B B B V 9   ",
"  0 B B B B V V ' 6.6.6.6.6.$./ =.=.=.=.=.=.=.=.=.=.=.=.*.W :.6.6.;.Q =.=.=.=.=.=.=.=.=.=.=.=.=./ $.6.6.6.6.6...B V B B B B 9   ",
"  q B B B B B B { 6.6.6.6.6.$./ =.=.=.=.=.=.=.=.=.=.=.=.*.Q :.6.6.;.Q =.=.=.=.=.=.=.=.=.=.=.=.=./ $.6.6.6.6.6.O.B B B B B B 9   ",
"  q n B B B B B O.6.6.6.6.6.$.&.=.=.=.=.=.=.=.=.*.=.=.=.*.Q :.6.6.;.~ =.=.=.=.=.=.=.=.=.=.=.=.=./ $.6.6.6.6.6.X.B B B B B B 9   ",
"  q B B B B B B X.6.6.6.6.6.$.&.=.=.=.=.=.=.=.*.=.=.=.*.*.W ;.6.6.;.Q =.=.=.=.=.=.=.=.=.=.=.=.=./ $.6.6.6.6.6.O.B B B B B V 0   ",
"  ; 7 7 7 7 6 5 ..6.6.6.6.6.$./ =.=.*.=.=.=.=.=.=.=.=.=.*.Q -.6.6.;.^ =.=.=.=.=.=.=.=.=.=.=.=.=.&.$.6.6.6.6.6...6 7 7 7 6 7 -   ",
"  . o o o o     ..6.6.6.6.6.#./ =.=.=.=.=.=.=.=.=.=.=.=.=.Q :.6.6.;.~ *.=.*.=.=.=.=.=.=.*.=.=.=./ $.6.6.6.6.6. .o o X o o o     ",
"  d D D H H & , @.6.6.6.6.6.$.&.=.=.=.=.=.=.=.=.=.=.=.=.*.Q :.6.6.;.~ =.=.=.=.=.=.*.=.=.=.=.=.=.&.$.6.6.6.6.6.O.B V B B B V 0   ",
"  d D G F F $ , +.6.6.6.6.6.$./ =.=.=.=.=.=.=.*.=.=.=.=.=.W -.6.6.;.~ =.=.=.=.=.=.=.*.*.=.=.=.=.&.$.6.6.6.6.6.o.B B B B B B 0   ",
"  d H F } F $ , o.6.6.6.6.6.$./ =.=.=.=.=.=.*.*.=.=.=.=.*.W ;.6.6.;.~ *.=.=.=.=.=.=.=.*.=.=.=.=./ $.6.6.6.6.6.+.B B B B B V 9   ",
"  d H H } F $ , +.6.6.6.6.6.$./ =.=.*.*.*.*.*.*.=.=.*.*.*.W -.6.6.;.~ *.=.*.*.*.*.*.=.*.=.=.=.=./ $.6.6.6.6.6.+.V B C n B B 8   ",
"  d H H } G $ , O.6.6.6.6.6.$.W ! W Q ~ ~ W Q Q R ! Q Q ~ T -.6.6.:.T W W ~ ! ! Q Q W ~ Q Q Q W W $.6.6.6.6.6.+.V B B B B B 0   ",
"  d H H | G $ , o.6.6.6.6.6.3.;.:.:.:.:.-.:.:.-.:.-.:.-.:.;.4.6.6.5.-.:.:.-.-.;.-.:.:.:.:.:.;.-.;.2.6.6.6.6.6.+.B B B B B B 0   ",
"  $ > : > < o O ..6.6.6.6.6.6.6.6.6.6.6.6.6.6.6.6.6.6.6.6.6.6.6.6.6.6.6.6.6.6.6.6.6.6.6.6.6.6.6.6.6.6.6.6.6.6...- - ; ; ; - @   ",
"  . O O + + o @ ..6.6.6.6.6.6.6.6.6.6.6.6.6.6.6.6.6.6.6.6.6.6.6.6.6.6.6.6.6.6.6.6.6.6.6.6.6.6.6.6.6.6.6.6.6.6...> > > > : > $   ",
"  , G G G H H G +.6.6.6.6.6.1.:.;.;.;.;.;.;.;.;.;.;.:.:.;.;.4.6.6.5.;.;.;.;.;.;.:.:.;.:.;.;.:.:.;.2.6.6.6.6.6.X.G G H H H G f   ",
"  1 G } G G H H @.6.6.6.6.6.$.W ^ ~ ~ ^ ~ ~ ! ~ ~ ^ Q Q Q E -.6.6.;.E ! ^ ~ ~ ^ ^ ^ ^ ^ Q ^ ^ ^ W #.6.6.6.6.6.+.G H H H D D d   ",
"  1 H H H } H G +.6.6.6.6.6.$./ =.=.=.=.=.=.=.=.=.=.=.=.=.Q :.6.6.-.W *.=.=.=.=.=.=.=.=.=.=.=.=./ $.6.6.6.6.6.+.G G H F G G d   ",
"  3 } G H H } G @.6.6.6.6.6.$./ =.=.=.=.=.=.=.=.=.=.=.*.*.Q :.6.6.;.~ =.=.=.=.=.=.=.=.=.=.=.=.=./ #.6.6.6.6.6.o.F F H F F G d   ",
"  , H } H H } H +.6.6.6.6.6.$./ =.=.=.=.=.=.*.=.=.=.=.=.=.Q :.6.6.;.Q =.=.=.=.=.=.=.=.=.=.=.=.=./ $.6.6.6.6.6.+.F } H H H G d   ",
"  3 F H H H H G +.6.6.6.6.6.$./ =.=.=.=.=.=.=.=.=.*.=.=.=.W -.6.6.;.! *.=.=.=.=.=.=.=.=.=.=.=.=./ $.6.6.6.6.6.+.F H H H F G d   ",
"                ..6.6.6.6.6.$./ =.=.=.=.*.=.=.=.=.=.=.=.*.Q ;.6.6.;.~ =.=.=.=.*.=.=.=.=.=.=.=.=./ $.6.6.6.6.6...o o o o o . .   ",
"  < s s d r + o ..6.6.6.6.6.$.&.=.=.=.=.=.=.=.=.=.=.=.=.=.! :.6.6.;.~ *.=.*.=.=.=.=.=.=.=.=.=.=./ $.6.6.6.6.6.o.0 w 0 0 w 0 , . ",
"  g H H D D & , o.6.6.6.6.6.$./ =.=.=.=.=.=.=.=.=.=.=.*.*.W -.6.6.;.~ =.=.=.=.=.=.=.=.=.=.=.=.=.&.$.6.6.6.6.6.O.H G F H F H d   ",
"  g F F F F = , +.6.6.6.6.6.$./ =.=.=.=.=.=.=.=.*.=.=.=.*.! -.6.6.;.~ *.=.=.=.=.=.=.=.=.=.=.=.=.&.$.6.6.6.6.6.@.H H H H H H d   ",
"  g H } F F = , +.6.6.6.6.6.$./ =.=.=.=.=.=.=.=.=.=.=.=.*.! ;.6.6.;.! =.=.=.*.=.=.=.=.=.=.=.=.=./ $.6.6.6.6.6.@.H H G H H G d   ",
"  g H F D H = > +.6.6.6.6.6.$./ =.=.=.=.=.=.=.=.=.=.=.=.*.Q -.6.6.;.Q =.=.=.=.=.=.=.=.=.=.=.=.=./ $.6.6.6.6.6.+.H H H H F G d   ",
"  g } H H F = , o.6.6.6.6.6.$./ =.=.=.=.=.=.=.=.=.=.=.*.*.Q ;.6.6.;.! =.=.=.=.=.=.=.=.=.=.=.=.=.&.$.6.6.6.6.6.@.G H H H H H d   ",
". e Z Z Z Z $ - X.6.6.6.6.6.$./ =.=.=.=.=.=.=.=.*.=.=.=.=.W :.6.6.;.~ =.=.=.=.=.=.=.=.=.=.=.=.=./ $.6.6.6.6.6.X.Z Z Z C Z S q   ",
"                [ 6.6.6.6.6.$./ =.=.=.=.=.=.=.=.=.=.=.=.*.Q -.6.6.-.~ *.=.=.=.=.=.=.=.=.=.=.=.*./ $.6.6.6.6.6.]   .             ",
"  % w w w w 9 0 o.6.6.6.6.6.$./ =.=.=.=.=.=.=.=.=.=.=.=.*.W :.6.6.;.! =.=.=.=.=.=.=.=.=.=.=.=.=./ $.6.6.6.6.6.] l l l l l n 8   ",
"  , H H F H H H @.6.6.6.6.6.$./ =.=.=.=.=.=.=.=.=.=.=.=.*.Q :.6.6.;.! *.=.=.=.=.*.=.=.=.=.=.=.=.&.$.6.6.6.6.6.{ G G F H H G d   ",
"  , G } F H H G O.6.6.6.6.6.$.&.=.=.=.=.=.=.=.=.=.=.=.=.*.~ -.6.6.;.! *.=.=.=.=.=.=.=.=.=.=.*.=./ $.6.6.6.6.6.{ G H H H D G d   ",
"  1 } F H H H G @.6.6.6.6.6.$./ =.=.=.=.=.=.=.=.=.=.=.=.*.W :.6.6.;.! =.=.=.=.=.=.=.=.=.=.=.*.*./ #.6.6.6.6.6.` G G F H F G d   ",
"  1 F } H F F G +.6.6.6.6.6.$./ =.=.=.=.=.=.=.=.=.=.*.*.*.! ;.6.6.;.~ =.=.=.=.=.=.=.=.=.=.=.=.=.&.$.6.6.6.6.6.` H H H H H G d   ",
". , F D F } G G +.6.6.6.6.6.#./ *.=.*.*.=.=.=.=.=.=.*.*.*.^ -.6.6.;.~ *.*.*.*.*.*.*.*.*.=.=.=.=./ $.6.6.6.6.6.[ G H H } H H d   ",
"  O 3 1 1 1 = & X.6.6.6.6.6.$.&.=.=.=.=.=.=.=.=.=.*.=.*.=.^ ;.6.6.;.~ *.*.*.*.*.*.*.=.*.=.=.=.=./ $.6.6.6.6.6.J f d f d d d 3   ",
"                [ 6.6.6.6.6.%.U Y Y P Y Y P U U P Y Y P Y U -.6.6.;.I P Y Y Y Y Y Y Y Y Y U U I L $.6.6.6.6.6.m   .             ",
"  g D G G H $ , O.6.6.6.6.6.6.6.6.6.6.6.6.6.6.6.6.6.6.6.6.6.6.6.6.6.6.6.6.6.6.6.6.6.6.6.6.6.6.6.6.6.6.6.6.6.6.O.G G G D G G s   ",
"  g G F D F $ , +.6.6.6.6.6.6.6.6.6.6.6.6.6.6.6.6.6.6.6.6.6.6.6.6.6.6.6.6.6.6.6.6.6.6.6.6.6.6.6.6.6.6.6.6.6.6.O.G G F H D G d   ",
"  g } F D F $ , X.6.6.6.6.6.6.6.6.6.6.6.6.6.6.6.6.6.6.6.6.6.6.6.6.6.6.6.6.6.6.6.6.6.6.6.6.6.6.6.6.6.6.6.6.6.6.O.G H F H D G d   ",
"  g H F G F $ , +.6.6.6.6.6.6.6.6.6.6.6.6.6.6.6.6.6.6.6.6.6.6.6.6.6.6.6.6.6.6.6.6.6.6.6.6.6.6.6.6.6.6.6.6.6.6.O.G G F H F G d   ",
"  g G } } H $ , +.6.6.6.6.6.6.6.6.6.6.6.6.6.6.6.6.6.6.6.6.6.6.6.6.6.6.6.6.6.6.6.6.6.6.6.6.6.6.6.6.6.6.6.6.6.6.O.H H H H G G d   ",
"  g G H } } * 1  .<.<.,.<.<.<.<.<.<.<.,.>.>.,.,.<.<.<.<.,.<.>.<.>.>.>.>.<.<.<.>.>.>.,.,.,.>.,.>.>.<.<.<.<.<.,...G H G H G | d   ",
". ; 8 8 8 8 o # v v v v v v v v v v v p i p p p p p i p p p p p p i p p p p i p p p p p p p p t v M M M M M M M 5 5 3 5 5 5 -   ",
"o   . .   .                                                                                                                     "
};
