/* XPM */
static char *result[] = {
/* columns rows colors chars-per-pixel */
"64 64 199 2 ",
"   c #010101",
".  c #080705",
"X  c #090907",
"o  c #060709",
"O  c #050908",
"+  c #0B090A",
"@  c #130E0D",
"#  c #14100E",
"$  c #161312",
"%  c #1A1614",
"&  c #1C1A16",
"*  c #1D1A19",
"=  c #211A17",
"-  c #221D1B",
";  c #25211E",
":  c #29211E",
">  c #1B1D26",
",  c #1D1F2B",
"<  c #1E2127",
"1  c #1E222B",
"2  c #262221",
"3  c #2B2321",
"4  c #2F2925",
"5  c #22232C",
"6  c #27292F",
"7  c #292A2F",
"8  c #312A26",
"9  c #352D29",
"0  c #3A2F2D",
"q  c #3A312E",
"w  c #242632",
"e  c #262A33",
"r  c #2B2B34",
"t  c #272C3B",
"y  c #2B2D3B",
"u  c #302E36",
"i  c #2E3035",
"p  c #2E313C",
"a  c #3C3330",
"s  c #33343C",
"d  c #38383B",
"f  c #3A3A3C",
"g  c #403634",
"h  c #433A35",
"j  c #453A38",
"k  c #4B3E3A",
"l  c #43433E",
"z  c #4F413E",
"x  c #51423F",
"c  c #2E3244",
"v  c #2D324B",
"b  c #343541",
"n  c #373A45",
"m  c #3D3B42",
"M  c #31344B",
"N  c #3A3D4A",
"B  c #333952",
"V  c #353959",
"C  c #3A3F65",
"Z  c #3F4147",
"A  c #3C4049",
"S  c #3F4554",
"D  c #3C4266",
"F  c #3D446A",
"G  c #3D4570",
"H  c #444444",
"J  c #42454C",
"K  c #494648",
"L  c #4A4A4E",
"P  c #544641",
"I  c #564943",
"U  c #594B46",
"Y  c #504A4F",
"T  c #5C4E48",
"R  c #54504D",
"E  c #5D504B",
"W  c #424553",
"Q  c #484B55",
"!  c #504D57",
"~  c #4F5254",
"^  c #4D525D",
"/  c #555156",
"(  c #5D5657",
")  c #5C595C",
"_  c #614F4B",
"`  c #62534D",
"'  c #655551",
"]  c #665A52",
"[  c #6B5A54",
"{  c #705F58",
"}  c #6D615A",
"|  c #74625B",
" . c #79665F",
".. c #7B685E",
"X. c #4E5461",
"o. c #525663",
"O. c #555966",
"+. c #595D69",
"@. c #414774",
"#. c #434974",
"$. c #454C7B",
"%. c #615E62",
"&. c #5D616D",
"*. c #5F6673",
"=. c #5C6678",
"-. c #766461",
";. c #7B6660",
":. c #7D6D67",
">. c #736C6B",
",. c #7E736F",
"<. c #606674",
"1. c #636A77",
"2. c #636C7C",
"3. c #6B6D79",
"4. c #766F71",
"5. c #6D727D",
"6. c #767376",
"7. c #7E7675",
"8. c #826E67",
"9. c #836E68",
"0. c #85746C",
"q. c #8A746E",
"w. c #93786D",
"e. c #8A7671",
"r. c #857A77",
"t. c #8E7B74",
"y. c #8C7E7A",
"u. c #937C74",
"i. c #8F807B",
"p. c #91827C",
"a. c #9F877B",
"s. c #9F887E",
"d. c #A2877D",
"f. c #A0887E",
"g. c #484F85",
"h. c #4A5182",
"j. c #4C558C",
"k. c #4D5493",
"l. c #515895",
"z. c #545E9C",
"x. c #56609E",
"c. c #6D7684",
"v. c #737987",
"b. c #777E8D",
"n. c #767F91",
"m. c #565FA2",
"M. c #585FA3",
"N. c #5660A1",
"B. c #7B838D",
"V. c #7B8392",
"C. c #778598",
"Z. c #7B8A9D",
"A. c #8E8381",
"S. c #938481",
"D. c #988884",
"F. c #9D908C",
"G. c #818695",
"H. c #818995",
"J. c #848D9C",
"K. c #888E9A",
"L. c #A18780",
"P. c #A58C84",
"I. c #A78E88",
"U. c #A69186",
"Y. c #A6938E",
"T. c #A89189",
"R. c #AA9591",
"E. c #878FA1",
"W. c #8A95A5",
"Q. c #8B95A5",
"!. c #9399A6",
"~. c #949BAA",
"^. c #949FB2",
"/. c #99A0AE",
"(. c #95A0B2",
"). c #9BA4B3",
"_. c #9FA7BA",
"`. c #9DA9BB",
"'. c #A2AAB9",
"]. c #AAB2BF",
"[. c #A3AFC1",
"{. c #AAB4C4",
"}. c #A8B4C6",
"|. c #AEBACC",
" X c #B4BBC7",
".X c #B1BCCE",
"XX c #AFBDD2",
"oX c #B1BED1",
"OX c #BBC3CE",
"+X c #BFC8D5",
"@X c #C1CBD7",
"#X c #C3CCDA",
"$X c #C6D0DC",
"%X c #CAD4DF",
"&X c #CDD5E2",
"*X c #CED9E6",
"=X c #CEDAE8",
"-X c #D1DBE7",
";X c #D2DCE9",
/* pixels */
"                            .   .   .   . . .   .           .   .   .   . . .   o                                               ",
"  * 9 9 9 9 9 9 9 9 9 9 @   # # # # # # @ @ # # @ #   % a a a a a a a q q q a q   . # @ @ @ @ @ @ @ @ @ @ @   = 9 9 9 9 9 9 =   ",
"  x 8.8.8.8.8.8.9.9.8.8.8 O d.d.f.f.f.f.f.f.f.f.s.d.o a 8.8.8.8.9.8.8.8.8.8.8.8.X & f.f.d.s.d.f.f.s.d.d.f.u.  U 8.8.8.8.8.9.z   ",
"  x 8.8.8.8.8.8.9.9.8.8.4 O f.f.f.f.f.f.f.f.f.s.s.d.o a 8.8.8.8.9.8.8.8.8.8.8.8.+ & f.f.s.f.s.f.f.d.s.s.f.u.  I 8.8.8.8.8.8.z   ",
"  x 9.9.8.8.9.8.8.8.8.8.4 O f.f.f.f.f.f.f.f.f.f.d.d.o a 8.8.8.8.8.8.8.8.8.8.8.8.O * f.f.f.f.f.f.s.f.f.f.f.p.  U 8.8.8.8.8.8.k   ",
"  x 8.9.8.8.9.9.8.8.8.9.4 O s.f.f.d.f.f.f.f.f.f.f.L.o a 8.8.8.8.8.8.8.8.8.8.8.8.X * f.f.f.f.f.L.d.f.L.d.d.u.  U 8.8.8.8.8.8.x   ",
"  x 8.8.8.8.9.9.8.9.8.8.8 + f.d.d.P.d.d.d.L.d.f.L.f.. a 8.8.8.8.8.8.8.8.8.8.8.8.X * f.f.f.d.d.d.d.f.f.L.d.u.  U 8.8.8.8.8.9.x   ",
"  x 9.9.9.9.9.9.9.9.8.8.4 O f.f.d.L.L.L.f.L.f.f.f.f.  0 8.8.8.8.8.8.8.8.8.8.8.8.. * f.f.L.L.f.d.L.L.L.d.d.p.. x  .8.8.8.8.8.x   ",
"                                                                                                                                ",
"  a ' ] ` ] # ; P P P P x I T T T T U $   = ; = = ; * - - - - - =   . 9 8 9 9 8 % 3 9 8 9 9 4   U |  . . . .] ` ` ` ` ' ] ' q   ",
"  ` f.f.L.s.& 9 8.8.8.8.8.8.8.8.8.8.9.= + s.s.s.D.f.f.s.f.f.f.s.d.  - 9.8.8.8.8.8.8.t.t.t.t.e.$ :.P.U.U.P.U.I.T.T.U.T.U.s.d.`   ",
"  ` f.s.L.s.= 9 8.8.:.8.8.:.8.8.9.8.8.; o s.s.s.f.f.f.f.f.s.f.f.d.  - 9.9.9.8.8.8.p.6 6 6 6 e > e u u r r r r r r u r r >.d.`   ",
"  ` d.f.d.d.= 9 8.8.8.8.8.9.8.8.8.8.8.= O f.f.s.f.f.f.f.f.s.f.f.f.  - 9.9.9.8.8.8.S.m _.`._._._.'._._._._._._._._.`.`.1.%.d._   ",
"  ` f.f.d.d.= 9 8.8.8.8.8.8.:.9.8.8.8.= . f.f.f.f.f.f.f.f.f.L.s.f.  - 8.8.9.8.8.8.i.e }.oXoXoXoX.XoXXXoXoXoX.XoXoXXXoX+.r.s.`   ",
"  ` f.d.a.d.= 0 9.9.8.8.8.8.8.8.8.8.9.* . s.f.f.f.d.f.f.s.s.s.s.f.  = 9.8.8.8.8.8.9./ ! J.Q.Q.Q.c.c.c.c.c.c.C.W.Q.E.*.u U.d.`   ",
"  k ......8.% 3 ` ` ` ` ` ` ` ` ` ` ] % . a h a h h 9 q h j h h j   $ k k k k k q h I ( r 6 w > 5 5 5 < 5 , 7 6 7 t / e.....k   ",
"                                                                                              . , 2.Z.Z.Z.i n                   ",
"  h { { [ | { { } } } { 3 = q.e.q.q.e.q.q.q.q.q.q.q.& 3 | | | | | } | | | | | { . P t.t.u.t.w.w.w 2.Z.Z.Z.p d x } } } } { { h   ",
"  x 8.8.8.8.8.8.8.8.8.8.8 2 d.d.d.f.f.f.f.f.d.d.f.f.= 8 8.8.8.8.8.8.8.8.8.8.8.8.+ T s.d.a.s.f.d.2 2.Z.Z.Z.p f _ 9.8.8.8.9.8.x   ",
"  x 8.8.8.8.8.8.8.8.8.8.8 2 s.s.L.d.f.f.f.f.f.d.f.s.; 9 9.8.8.8.8.8.8.8.8.8.9.8.+ T s.s.s.d.f.d.< 2.Z.Z.Z.i f E 9.8.8.8.8.9.z   ",
"  x 8.8.9.8.8.8.8.8.:.8.8 2 s.d.f.f.f.f.L.f.f.f.f.f.= 9 8.8.8.8.8.8.8.8.8.8.8.8.+ T L.f.f.s.f.f.5 c.Z.Z.Z.p f _ 8.8.8.9.8.8.k   ",
"  z 8.8.:.9.8.9.9.8.8.8.8 ; s.s.f.s.f.f.f.s.s.f.f.f.; 8 9.8.8.8.8.8.8.8.8.8.p.4.m L 7.Y.f.f.f.f., =.Z.Z.Z.p f _ 8.9.9.8.8.8.x   ",
"  P 8.8.8.8.:.8.8.8.8.8.8 2 d.d.d.s.f.s.f.s.f.f.L.s.- 9 8.8.8.8.8.8.9.e.r.m e +.H.V.&.y L R.s.f.5 2.Z.Z.Z.b d ` 9.8.8.8.8.8.k   ",
"  : j j j j j j j j h h % $ I I P I P I U T E E T T $ % j j j j h ( +.w b B.@X-X-X-X*X#X1.1 >.P , 2.Z.Z.Z.s d 9 h h j j j k :   ",
"  . O O + +   O O O + O + + + O O O +     + + + + + + X . + + f Z < ^ !.*X*X*X-X-X-X-X*X-X!.1 K 5 2.Z.Z.Z.t m + + + + + + +     ",
"  ` d.d.f.f.= 9 9.8.8.8.8.8.8.8.9.8.9.- g d.f.d.f.d.d.d.P.D.s e 1. X-X-X*X-X-X-X-X-X-X-X-X-XQ.2 5 2.Z.Z.Z.d y.8.8.8.8.8.8.8.x   ",
"  ` f.f.s.s.* 9 8.8.9.9.8.8.8.8.8.8.8.- a d.s.s.s.s.Y.r.w m G.$X-X-X-X-X-X-X-X-X-X-X-X-X-X*X-XO.1 2.Z.Z.Z.b p.8.8.8.9.8.9.8.k   ",
"  ` f.f.f.s.= 9 9.8.8.9.8.8.8.8.8.9.9.- g d.s.d.Y.~ 2 ^ ^.-X;X-X-X-X-X-X-X-X-X-X-X-X-X-X-X-X-X@X5 n Z.Z.Z.b y.8.8.8.8.9.8.8.x   ",
"  ` f.f.L.s.= 9 8.9.8.9.8.8.9.9.9.9.8.- g T.D.p e 1. X;X;X-X-X-X-X-X-X-X-X-X-X-X-X-X-X-X-X-X-X-X+.< n.Z.Z.d p.8.8.8.8.8.9.8.k   ",
"  ` f.f.L.f.& q 8.8.8.9.8.8.8.8.9.9.8.K ) 2 N H.%X-X*X-X-X-X-X-X-X-X-X-X-X-X-X-X-X-X-X-X-X-X#XJ.^ 5 Q Z.=.r e.8.8.8.8.8.8.8.x   ",
"  ` d.f.L.d.& 9 8.9.8.9.8.8.8.8.9.S.L < ^ !.-X-X-X-X-X-X-X-X-X-X;X-X-X-X-X-X-X-X-X-X-X-X Xv.O.H..Xy w S 5 r.:.8.8.8.9.8.9.9.k   ",
"  = 8 4 9 0 + @ q g q q 8 : a ) r r c.OX-X;X-X-X-X-X-X-X-X-X-X-X-X-X-X-X-X-X;X-X-X-X/.O.<.`.oXoXoXO., ^ R 8 3 3 3 2 : : : : %   ",
"  o # # # # + $ ; ; ; ; 7 Z 1 n H.%X-X-X-X-X-X-X-X-X-X-X-X-X-X-X-X-X-X-X-X-X-X@Xn.o.b.|.oXoXoXoXXXJ.5 % @ X   = 9 8 8 8 8 8 &   ",
"  0 d.d.d.d.d.d.s.s.F.L 5 &.'.;X;X-X-X-X-X-X-X-X-X-X-X;X-X-X-X-X-X-X-X-X-X{.<.+.~.oXoXoXoXoXoXoXoX`.w y.8. .   .d.d.f.f.f.d.`   ",
"  0 d.d.d.d.f.I.p.m i 5.OX;X-X-X-X-X-X-X-X-X-X-X-X-X-X-X-X;X-X-X-X=X%XK.O.c.'.OXoXoXoXoXoXoXoXoXoX`.1 y.8.|   -.s.L.D.d.L.d.`   ",
"  0 f.d.D.Y.%.r Z W ^ Q A Q X.&.G.'.&X-X-X-X-X-X-X-X-X-X-X-X-X-X X5.o.J.|.XXXXXXoXoXoXoXoXoXoXoXXX^.5 e.8.|   -.s.f.d.f.f.d.`   ",
"  0 d.F.d y e t N s t C D V w w 5 5 e O.'.*X-X-X-X-X-X;X-X&X~.O.3.`.oXXXXXoXoXoXoXoXoXoXXXXXXXOXoXn.b 9.8.|   -.f.f.f.f.s.d.`   ",
"  0 a.7.p =.C.Z.Z.J V m.z.M H H l d M v < N ].-X-X-X-X+Xv.^ V..XOX|.oXoXoXoXoXoXoXoXoXoXOXXX`.[.XX^ 6.8.8.|   -.f.f.f.f.d.d.`   ",
"  0 s.Y.m C.Z.Z.Z.t @.z.z.c J H H H d D l.v 1 b.-X).&.*.(.XXXXOXXXXX.XoXoXoXoXoXoXoXXXXXZ.O.*.[.^., S.8.8.|   -.f.f.d.L.a.d.E   ",
"      o 1 &.Z.Z.Z.5 $.z.k.d H H H H H s k.N.G 6 Z b.{.oXXXXXXXoXXXXXoXoXoXoXoXoXoX}.b.^ c.}.|.].b W           + + + + + O . .   ",
"  9 ` T >.u C.Z.Z., h.m.j.b H H H H H H c x.N.V N oX.XoXoXoXoXoXOXXXXXXXoXoXoX).2.X.E.oX|.|.V.p J ` x I I P E T I I I x I x 9   ",
"  [ f.f.P.Y N Z.Z.r #.m.z.p H H H H H H s l.N.h., [.oXoXoXoXoXoXXXXXoXoX.XQ.O.<.'.oX|.[.2.p e K } f.f.s.s.s.s.s.f.f.s.s.s.d.`   ",
"  [ f.f.d.R.6 W C.N D m.z.b H H H H l H d F x.x.e J.XXoXoXoXoXoXXXXXoXb.^ n.|.oXoXQ.o.5 J A.:.  ] f.f.f.s.s.f.f.f.f.s.f.f.f.`   ",
"  [ f.f.L.f.l r N S c m.z.B Z H H H H H J B x.x.t v.oXoXoXoXoXoX|.OXoX[.oXoX}.n.N 5 %.D.9.8.-.  ] f.s.f.f.s.f.f.f.f.f.f.f.d.`   ",
"  [ f.s.L.f.= K ' e 1 l.m.k.b H H H H H H M N.x.M *.oXoXOXoXJ.o.C.oXXX.X`.1.y u 7.y.8.9.8.9.|   ] f.f.f.s.f.f.f.f.f.f.f.f.d.`   ",
"  [ f.s.f.L.; q 9.S.r F m.M.B H H H H H H M N.x.v 2.oX[.E.oXQ.|.OX.XQ.X., L y.q.9.9.9.9.8.9. .  ] f.f.f.s.s.f.f.L.f.f.f.f.f.`   ",
"  E q.q.q.q.& ; ` ` 4.w z.m.k.y H H H H H B z.N.t c.oX(.(.XXoX{.n.n < ) ,.' ` ' T I I P I P z   T q.e.q.q.q.q.q.q.e.q.q.q.q.x   ",
"                    + r V m.m.j.y H H J d $.z.z.5 E.oXXXoX`.*.t t L *                                                           ",
"  & I I I I z P I I U -.< $.m.m.k.v s d v m.m.#.w |..XQ.^ 1 A 4.E l x T U U U U o % 9 9 9 9 9 3 8 9 9 9 9 3   P -.-.;...;...k   ",
"  0 d.s.d.f.f.s.s.f.f.f.L < $.m.z.m.j.h.m.z.l.c O.n.b , >.R.f.f.d.f.f.f.d.f.d.d.O 8 8.8.8.8.8.8.8.8.8.8.8.[   [ f.L.f.f.f.f.`   ",
"  0 s.f.f.s.f.f.f.f.f.f.$ m < G M.M.m.m.N.M.v 5 t d K % a.f.f.f.s.d.f.f.f.f.f.d.. 9 9.9.8.8.8.8.8.8.8.8.9.[   [ f.f.f.f.s.d.`   ",
"  0 d.s.f.f.f.f.f.f.f.f.$ . p.s t C g.j.#.w e / y.8.  @ a.f.f.f.s.s.f.f.f.f.d.d.o 9 8.8.8.:.8.8.8.:.8.8.8.[   [ f.f.f.f.d.d.`   ",
"  0 s.s.d.s.f.f.f.f.f.f.$ . 9.8.r.L r 7 b ( y.8.9.8.  # a.f.d.d.d.d.s.d.d.f.f.d.O 9 8.8.8.8.8.8.8.8.9.8.9.[   [ f.f.f.f.s.d.`   ",
"  0 s.s.d.D.f.f.f.d.f.f.# . 9.9.8.8.8.8.8.9.8.8.9.9.. @ d.s.D.L.f.s.s.s.D.L.L.f.+ 9 8.8.8.8.8.8.8.8.8.8.9.]   [ f.f.f.L.d.f.`   ",
"  # a q q q ; = - - = ; .   3 8 4 4 4 = % % % & % =   . a a q q q ; = ; - - - - o @ 4 4 4 4 4 ; 4 4 4 4 4 2   g ` ` ` ' ` ` a   ",
"                                        o                                                                                       ",
"  [ s.d.d.f.= 9 8.8.8.8.8.8.8.8.8.8.8.= . d.L.d.d.d.L.d.L.d.d.d.d.  @ 8.8.8.8.8.9.9.9.9.8.9. .  ' d.a.d.a.d.d.d.d.s.d.a.d.d._   ",
"  [ s.f.L.f.* 9 8.8.:.8.8.8.8.8.9.9.8.= . d.d.s.P.f.f.f.f.d.f.f.s.  @ 0.8.8.8.8.8.8.8.8.9.9.-.  ' D.d.s.d.s.d.f.f.s.f.s.s.d.`   ",
"  ] f.f.L.s.& 9 8.8.8.8.8.8.8.8.9.9.8.= o s.s.d.f.f.f.f.f.f.f.f.d.  + 8.8.8.8.8.8.8.8.8.8.9. .  ] d.s.d.s.s.f.f.f.s.f.f.s.d.E   ",
"  [ s.s.d.s.& q 8.8.8.8.8.8.:.8.8.8.8.- o s.s.s.f.f.f.f.f.f.f.f.s.  + 9.8.9.8.8.8.8.8.8.8.9.|   ] f.s.d.s.d.f.f.f.f.f.f.d.d.`   ",
"  [ d.L.L.f.* 9 8.8.9.9.8.8.8.8.8.8.8.= O f.f.f.f.f.f.f.f.f.f.d.d.  @ 8.8.8.8.8.8.8.8.8.8.9.-.  ] d.d.f.f.f.f.f.f.f.f.f.s.d.`   ",
"  [ d.d.d.d.= 9 8.8.8.8.8.8.8.8.8.9.8.= . d.f.f.f.d.d.d.d.d.d.d.d.  + 8.8.8.8.8.9.8.8.8.9.9.-.  [ d.d.d.d.d.f.d.d.d.d.f.d.d.`   ",
"  3 k k k k @ # 9 9 9 9 9 9 8 9 9 9 9 +   X X X X X + + X X X X X     . . . . . . . . . . . .   4 a g g g a g g g g g a g g :   ",
"+ .   . .                                                                                                                       "
};
