/* XPM */
static char *result[] = {
/* columns rows colors chars-per-pixel */
"64 64 180 2 ",
"   c #010101",
".  c #080705",
"X  c #050D07",
"o  c #090907",
"O  c #070608",
"+  c #080708",
"@  c #050A09",
"#  c #0B0B0B",
"$  c #120E0D",
"%  c #06110B",
"&  c #09150D",
"*  c #15100E",
"=  c #0E0E10",
"-  c #0B1310",
";  c #151414",
":  c #1A1715",
">  c #141C15",
",  c #1E1A17",
"<  c #16171A",
"1  c #1B1718",
"2  c #1C1B1B",
"3  c #221D1B",
"4  c #0C2418",
"5  c #1C251E",
"6  c #25211E",
"7  c #29211D",
"8  c #1F1F21",
"9  c #162E21",
"0  c #143323",
"q  c #1D3D2A",
"w  c #242424",
"e  c #2A2221",
"r  c #2F2925",
"t  c #262628",
"y  c #2C2B2D",
"u  c #312A26",
"i  c #3A2D23",
"p  c #342D29",
"a  c #392F2D",
"s  c #35302A",
"d  c #3B312E",
"f  c #2E2E31",
"g  c #302F34",
"h  c #2F3231",
"j  c #343334",
"k  c #3D3331",
"l  c #3D3A37",
"z  c #363539",
"x  c #373938",
"c  c #3B3B3C",
"v  c #403634",
"b  c #463A36",
"n  c #443B3A",
"m  c #4B3E3A",
"M  c #1C422E",
"N  c #1C4E35",
"B  c #1E5338",
"V  c #224D32",
"C  c #214F38",
"Z  c #3F403E",
"A  c #215439",
"S  c #245E3E",
"D  c #43413E",
"F  c #4F413D",
"G  c #564532",
"H  c #50423E",
"J  c #674D3C",
"K  c #3E3D42",
"L  c #403F44",
"P  c #265E42",
"I  c #296545",
"U  c #2E6C4A",
"Y  c #337C54",
"T  c #434344",
"R  c #4D4644",
"E  c #4D4947",
"W  c #454449",
"Q  c #48474C",
"!  c #4B4A4D",
"~  c #544741",
"^  c #564944",
"/  c #5A4C46",
"(  c #524C4A",
")  c #56514E",
"_  c #5D504C",
"`  c #4D4C52",
"'  c #504F54",
"]  c #525156",
"[  c #5C5553",
"{  c #5C5954",
"}  c #57565C",
"|  c #58575D",
" . c #59585E",
".. c #614F4B",
"X. c #62524D",
"o. c #655551",
"O. c #665A52",
"+. c #6B5A53",
"@. c #655E5B",
"#. c #705F58",
"$. c #6C615E",
"%. c #75635B",
"&. c #7A665F",
"*. c #7A685E",
"=. c #5E5D63",
"-. c #605E65",
";. c #656366",
":. c #64636A",
">. c #766461",
",. c #7B6660",
"<. c #726A66",
"1. c #7D6964",
"2. c #766B69",
"3. c #796E6B",
"4. c #7C746E",
"5. c #6D6C72",
"6. c #706F75",
"7. c #747379",
"8. c #98745B",
"9. c #826E67",
"0. c #836E68",
"q. c #85716B",
"w. c #89746D",
"e. c #907A6F",
"r. c #817572",
"t. c #897873",
"y. c #8B7A73",
"u. c #8B7E79",
"i. c #927B73",
"p. c #A17E66",
"a. c #36835A",
"s. c #34895E",
"d. c #378B61",
"f. c #3A9867",
"g. c #3C9668",
"h. c #41996B",
"j. c #43A16E",
"k. c #43A372",
"l. c #45AD76",
"z. c #43B27A",
"x. c #45B57A",
"c. c #8C817D",
"v. c #92837C",
"b. c #9F877D",
"n. c #9F897E",
"m. c #AE8968",
"M. c #A2867D",
"N. c #A0887E",
"B. c #BB9375",
"V. c #C09475",
"C. c #7D7C83",
"Z. c #4AB780",
"A. c #4BBE83",
"S. c #4DC284",
"D. c #4EC887",
"F. c #4CC588",
"G. c #4FCE8D",
"H. c #54C689",
"J. c #52CD8E",
"K. c #51D08D",
"L. c #54CF90",
"P. c #86858C",
"I. c #88878F",
"U. c #89888F",
"Y. c #9A8984",
"T. c #9F918A",
"R. c #898791",
"E. c #898891",
"W. c #A08780",
"Q. c #A48A81",
"!. c #A59187",
"~. c #A4938C",
"^. c #AA948C",
"/. c #A99792",
"(. c #E9B993",
"). c #F9BF96",
"_. c #F7BF9A",
"`. c #F6C19B",
"'. c #F9C19A",
"]. c #F2C1A0",
/* pixels */
"                            . .   .   .   . .   .           .   .     .       . .                                               ",
"  , p p p i p p p p i p $   $ $ * * * * * * * * * *   : k k d v v d d d v v v d   . ; $ $ $ $ $ $ $ $ $ $ $   3 p p p p p p 3   ",
"  H 9.9.9.9.9.9.9.9.9.9.r @ M.M.Y.M.W.M.M.n.M.n.n.M.@ k 9.9.0.0.q.v.R 2 3 R c.q.+ , M.M.M.n.n.M.n.M.M.M.Y.i.  ^ 9.9.9.9.9.9.F   ",
"  H 9.9.9.9.9.9.9.9.9.9.r @ n.M.M.M.M.M.M.M.n.N.n.Q.  k 0.9.0.y.D             l 5 2 M.M.n.M.M.n.n.n.M.n.Q.i.  ^ 9.9.9.9.9.9.F   ",
"  ~ 9.9.9.9.0.9.9.9.9.9.r @ M.M.W.M.W.W.M.M.M.W.Q.M.@ k 3.0.0.c   # K ` ' c #   t 3 n.M.M.M.M.W.M.M.M.M.M.i.  / 9.9.v.<.e E H   ",
"  H 0.9.9.0.0.0.9.9.9.0.r @ M.M.W.W.M.M.W.W.M.W.M.n.  k 0.0.u.  # ` | } } | ] #   ' Y.M.M.M.W.M.M.W.M.M.M.v.w <.( @         F   ",
"  H 9.9.9.0.0.0.9.0.0.t.c t =   O   O       O       O                                 O .                           0 U     H   ",
"  F 0.0.0.0.0.0.0.(                       .               .                   O                               A s.S.J.G.    F   ",
"              x     # B d.l.D.J.J.J.J.J.L.J.J.J.J.J.J.J.J.G.    B._.`.`.`.`.).V.    K.J.G.J.J.    `.`.).`.    J.J.J.K.J.        ",
"  k o.o.X.o.x   + P S.H.L.J.J.J.J.J.J.J.J.J.J.J.J.J.J.J.J.J.    B.`.`.`._._._.B.    J.J.J.J.J.    _.`.`.'.    J.H.J.J.J.    d   ",
"  X.n.n.Q.{   & k.L.J.g.A > o 9 J.J.J.J.J.L.J.J.J.J.J.J.J.K.                                      i _.`.i     N d.S.L.K.    X.  ",
"  X.M.M.u.  & x.H.z.0         0 J.J.J.J.J.K.J.J.J.J.J.J.J.K.    O             .                     `.`.            0 U     X.  ",
"  X.M.M.  . j.H.j.@   @ I k.F.J.J.J.J.J.J.J.J.J.J.J.J.J.J.J.    | | } } | } } }     0.0.9.9.1.      ).`.    ^.Y.( .         o.  ",
"  X.Q.{   P J.z.@   M S.G.J.J.J.J.J.J.L.J.J.J.J.J.J.J.J.K.J.%   ` } } } } } | ]   ; 0.9.9.9.1.      `.`.    M.M.Q.M.~.q.t ( X.  ",
"  X.n.  @ S.K.0   M J.J.K.K.J.J.J.J.J.J.J.J.H.K.J.J.k.U M M o   f } } | } | } y   ) 0.9.9.9.1.      ].`.    M.M.M.M.M.M.M.M.X.  ",
"  F 4.  N K.g.  % F.J.J.J.K.J.J.J.J.J.J.J.J.J.l.I 4               f ` | } ` y     @.m m m m m     . ].'.    9.*.*.*.*.*.9.*.m   ",
"    j   s.J.B   I H.L.H.L.K.J.J.J.J.J.J.F.a.5       # c  .-.' y                 Z                                               ",
"  b y   l.L.4   k.J.L.L.L.K.J.J.J.J.A.I %       - :.I.U.R.R.R.E.;.t .         ; T o.i.e.e.e.i.i.              ~ #.#.#.#.#.#.v   ",
"  H *   F.L.@   F.J.J.J.J.J.J.J.G.a.X     2 '   . 7.E.R.E.R.R.E.R.R.U.E.C.W ;     o $./.M.M.M.N.    I.R.      ..0.9.9.9.9.9.H   ",
"  F     J.H.    J.L.J.J.J.J.J.J.Y       t E.I.j   y z # # x  .C.E.P.U.P.R.U.P.;.y       s v.!.M.    E.E.      _ 0.0.1.q.9.9.F   ",
"  m     J.J.  . J.J.J.J.J.J.J.x..   L     C.6.t                 2 P :.R.I.R.R.E.U.C.Q       O ;.    f ]       X.1.0.0.0.9.9.H   ",
"  F     J.H.    J.J.J.J.J.J.J.A   f E.y   #       0 9   y ` t O     . + t ! 7.U.U.I.5.  = y                   _ 0.9.0.0.9.9.H   ",
"  H *   F.J.0 9 J.J.J.J.J.J.J.X   ! P.t     X S z.J.0   =.R.E.P.-.L 3         & Z 5.c   K P. .  8 5.] f   #   X.0.0.0.0.9.9.m   ",
"  7 w   l.L.H.G.J.J.J.J.J.L.j.      2   % Y F.G.G.S.    y | C.P.R.R.R.C.} y             =.P.T   T R.R.=.  j   p b n b b b m 7   ",
"  . h   a.K.J.J.J.J.J.J.J.J.U   2 @     Y J.G.J.J.d.          2 L ;.P.U.I.`   x T 2       2 ;   ;.E.6.#   T o # + # + + + #     ",
"  X.b.  V J.J.J.J.J.J.L.J.J.0   =.5.    Z.J.J.J.J.C   c ! t .       . t ` 8   !.N.n./.4.>       ; 2     ( 9.9.9.9.9.9.9.0.0.H   ",
"  X.Q.  . A.J.J.J.L.J.J.J.D.    ;.:.  4 G.J.J.J.J.-   6.I.E.P.:.L 1           !.n.N.M.M.M.~.@..     . 2.9.9.0.9.0.9.9.9.9.9.H   ",
"  X.Y.[   P J.J.J.J.J.J.J.h.      ;   P J.J.J.J.k.    z  .C.R.R.E.U.C. .t   D Q.M.M.M.Y.M.b.M.  %.t.9.9.9.9.9.9.9.9.0.9.9.9.H   ",
"  X.Q.!.    j.J.J.J.J.J.L.P   7 .     h.J.J.J.G.U           2 K :.U.R.R.K   u.Q.n.M.n.M.M.M.M.  X.9.9.9.1.q.9.9.9.9.9.9.9.9.m   ",
"  X.n.n.r.  & x.J.J.J.J.L.4   m.m.  O J.J.K.G.J.9   ! ` t           t ` <   /.M.n.n.M.n.n.n.n.  X.9.9.9.9.9.9.0.0.9.9.9.9.9.H   ",
"  X.M.N.Q.E   & j.J.G.J.S.  . (.8.  q J.J.J.J.F.O   =.P.E.P.;.K ,         # Q.Q.Q.n.n.Q.M.n.n.  X.9.9.9.9.0.9.9.9.9.9.9.9.9.H   ",
"  , u u u k f   O P A.J.d.  d `.G   P G.J.J.J.s.        y } C.P.R.C.} 5   R d l a k v v v v k   3 u r u u u e e e e e e 3 7 :   ",
"    $ ; * * * T     X N q   %.`.p.    d.f.U 9     t 2         2 W 6.P.j   W # $     ; # = $ $ . # $ $ $ $ #   3 u u r u r u ,   ",
"  a M.M.b.M.M.M./.[         p._.'.J                                       ^.M.M.  3 0.9.9.9.9.9.9.9.9.9.9.%.  &.M.M.M.M.Q.M.o.  ",
"  d M.N.M.M.Q.Y.M.Q./.Y.u     i p.i   3 ! 2.v.                            ^.M.M.  6 9.0.9.0.0.0.9.9.9.9.9.%.  &.n.n.Y.M.n.n.X.  ",
"  d M.n.n.M.N.N.M.Y.M.n.r ! ;       1 w.0.0.0.    | } } } } } } } } } ;   ~.M.M.  6 9.9.9.9.9.0.9.9.9.9.9.%.  &.n.M.M.M.M.M.X.  ",
"  a M.n.n.N.N.N.M.n.M.n.e : w.u.R l v.9.0.9.9.    } } } } } } } } | | t   Y.n.M.  8 9.9.9.9.1.0.9.9.0.9.9.%.  >.N.N.n.N.n.M.X.  ",
"  a n.M.N.N.N.n.n.M.n.b.e , 9.9.9.9.0.9.9.9.9.    } } } } } } } | | | z   <.n.M.  6 9.0.0.9.q.0.9.9.9.9.9.%.  &.n.n.M.M.M.M.X.  ",
"  k n.M.N.N.N.N.n.M.M.n.w > 9.9.9.9.9.9.0.0.9.    } | } } } } } } } | W   l n.M.  6 9.q.9.9.0.0.9.9.9.9.9.%.  >.N.N.M.M.M.M._   ",
"                            . o o + o     . .     } } } } } } | } } | ]   . .                                 + # # # # # o     ",
"  a ....X._ $ $ 6 6 6 6 7 r p s u s p # $ d k     | } } ;     ; } } } } #   l , $ : 3 , , , ,   d ^ ^ ~ ~ ~ _ / ~ ~ ^ ~ ~ ~ u   ",
"  O.n.n.n.n.3 p 9.9.9.9.9.9.q.1.9.9.9.3 7 n.M.    | } }         z } } } 8   c.9.9.0.9.9.9.9.%.  O.n.n.n.n.n.n.n.n.n.n.n.n.b.X.  ",
"  +.M.Q.M.N.3 p 9.9.9.0.9.9.9.9.9.q.9., 7 M.M.    | | }     T.  # ] | } f   3.9.9.9.9.9.9.0.>.  O.M.n.N.N.n.N.N.N.N.n.M.n.M.X.  ",
"  +.M.n.M.M.3 s 0.9.9.9.9.9.9.0.9.9.9.3 e Y.M.    } } }     M.j   z | } K   E 1.0.9.9.9.9.q.>.  O.M.N.N.N.N.n.n.N.N.N.N.M.M.X.  ",
"  +.N.N.Y.N.6 s 0.0.9.9.9.9.9.9.9.9.9.3 7 M.M.    | | |     n.~.  = ] | `   2 9.9.9.9.9.9.q.%.  O.N.N.n.n.M.n.M.n.n.n.n.n.M.X.  ",
"  $.N.N.M.N.6 d 0.0.0.0.q.0.0.9.9.9.9.3 7 Y.^.  + } | !   e n.M.    } | |     9.0.0.9.q.9.9.&.  O.M.Q.N.n.M.Q.n.M.Q.M.M.N.M.X.  ",
"  / w.w.w.w.: 6 X.X.X.X.X.~ / / / / / ; , O.r.  1 } } z   @.&.&.    | | |     o./ ~ ~ ~ ~ ~ F   / w.w.w.w.w.w.w.w.w.w.w.w.e.~   ",
"                                            T   t } } 9   c         | | |                                                       ",
"  , ~ ^ / / F H ^ ^ / ^ X   v d k k k a d d E   c | | O   %./ /     } } }     ^   : p u p p p e u p p p p e   ~ ,.&.1.*.*.*.F   ",
"  d M.M.Y.M.b.b.N.N.N.M.: . 0.0.1.0.0.9.9.9.y   W | !   6 M.n.M.    } | }     M.# u 9.9.9.9.9.9.9.9.9.9.0.+.  +.M.M.n.M.M.M.X.  ",
"  a n.n.N.n.M.n.N.n.N.N.; . 0.9.9.9.9.9.9.w.    } | j   <.M.M.n.    } } |     M.# u 9.9.9.0.9.9.0.9.9.0.0.O.  +.M.M.Y.M.n.M._   ",
"  d Y.M.N.N.n.n.N.N.N.N.; o 9.9.9.0.9.9.0.v.  ; | } 8   T.M.Y.M.    } } }     M.# u 9.9.9.9.9.9.9.9.9.9.0.+.  +.n.n.M.M.M.M.X.  ",
"  a M.M.M.M.M.M.N.n.M.M.* . 9.0.9.0.9.0.9.u.  w | } @   ^.n.M.M.    } } |     M.@ u 0.0.9.9.9.9.9.9.0.0.1.+.  +.M.n.M.n.n.M.X.  ",
"  a Y.n.n.n.M.M.N.M.M.M.* . 0.9.9.0.9.9.9.<.  g | !   : M.M.n.n.    } } }     M.# u 0.0.9.9.9.9.9.0.0.0.0.+.  +.n.n.M.M.M.M.X.  ",
"  * d d d d 6 2 6 6 6 3     u r r r r 3 ; r   T } j   c d d d a     } } |     6   * r r r r r 6 r r r r r e   v O.X.X.O.X.X.k   ",
"                                          @   ] } 8   c             } | |                                                       ",
"  +.M.b.n.n., i 9.9.9.1.9.9.9.9.9.9.9.: :   #  .} #   3.^.Q.M.M.    } } } .   3.i.q.0.9.9.0.&.  X.b.M.n.M.b.b.M.b.M.n.n.M.M...  ",
"  +.b.M.W.M., p 9.9.9.9.9.9.9.9.9.9.9.3 n   2 } } ;     & /.n.M.    } } } ;     # v.9.9.9.0.>.  O.n.M.M.n.M.n.N.n.n.M.n.n.M.X.  ",
"  +.n.n.W.n., p 9.9.9.9.9.9.9.9.9.9.9.3 T   y } } } Q 2   D n.M.    | } } } W 8   c 9.9.9.9.&.  O.M.n.n.M.n.n.N.M.n.M.M.n.M.X.  ",
"  +.M.n.M.n.3 p 9.9.9.9.9.9.9.9.9.9.9.3 T   t } } } } ]   . n.M.e   P o.} } } }   . 9.9.9.q.>.  O.M.M.n.M.n.N.N.n.M.n.n.n.M.X.  ",
"  +.Q.n.Y.M., p 9.9.9.9.9.9.9.9.9.9.9.3 w @                 n.M.c.                  9.9.9.9.>.  O.M.M.Q.M.n.M.n.M.N.M.M.M.M.X.  ",
"  +.M.M.n.M.3 p 9.9.9.9.9.9.9.9.9.9.9.3 . ^.R .           ) M.M.Q.n ;             R 9.9.9.9.>.  O.M.M.M.M.M.M.M.M.M.M.M.M.M.X.  ",
"  r m m m m # * i p p p p p i u p p p #   o . o o o o o o o o o #     . . . . . . . . . o . o   e k l v v v v k l v k v v v 7   ",
"#   .   . .                                                                                                                     "
};
