/* XPM */
static char *result[] = {
/* columns rows colors chars-per-pixel */
"64 64 184 2 ",
"   c #010101",
".  c #080604",
"X  c #050805",
"o  c #090907",
"O  c #040509",
"+  c #050908",
"@  c #0B0A0A",
"#  c #120E0D",
"$  c #15110D",
"%  c #160F13",
"&  c #151311",
"*  c #1B1413",
"=  c #1D1A17",
"-  c #1E1A19",
";  c #221B17",
":  c #221D1A",
">  c #222012",
",  c #26221E",
"<  c #29211E",
"1  c #12192A",
"2  c #151D32",
"3  c #262222",
"4  c #2A2221",
"5  c #2F2925",
"6  c #2C282A",
"7  c #322A26",
"8  c #352D29",
"9  c #3A2F2D",
"0  c #3B322E",
"q  c #2B2B35",
"w  c #392E32",
"e  c #3D3330",
"r  c #3F3833",
"t  c #33313A",
"y  c #43362E",
"u  c #403634",
"i  c #453936",
"p  c #453A38",
"a  c #4B3E3A",
"s  c #4F413E",
"d  c #51423F",
"f  c #171E4C",
"g  c #1E274F",
"h  c #1F2653",
"j  c #1F2853",
"k  c #242843",
"l  c #212553",
"z  c #222C56",
"x  c #252D5C",
"c  c #29345A",
"v  c #31365F",
"b  c #252C62",
"n  c #2A3264",
"m  c #2B356A",
"M  c #353D66",
"N  c #333E6B",
"B  c #2C3A73",
"V  c #333D70",
"C  c #413E5A",
"Z  c #1A4153",
"A  c #234250",
"S  c #3E5865",
"D  c #394478",
"F  c #3D467E",
"G  c #336071",
"H  c #4F4140",
"J  c #534641",
"K  c #564944",
"L  c #5B4E47",
"P  c #5C4E49",
"I  c #5F504B",
"U  c #484A59",
"Y  c #614F4A",
"T  c #62524C",
"R  c #685B4F",
"E  c #645651",
"W  c #665A52",
"Q  c #6A5A53",
"!  c #6A5A58",
"~  c #705F58",
"^  c #736257",
"/  c #74625B",
"(  c #79655E",
")  c #7A695E",
"_  c #4D516F",
"`  c #5A5764",
"'  c #404A7F",
"]  c #44577B",
"[  c #446C7D",
"{  c #766360",
"}  c #7E6B63",
"|  c #7D6A65",
" . c #7F7168",
".. c #666074",
"X. c #6C797E",
"o. c #747072",
"O. c #826E67",
"+. c #836E68",
"@. c #8E7567",
"#. c #8B726D",
"$. c #9D756A",
"%. c #8A7872",
"&. c #937B73",
"*. c #987D76",
"=. c #977C7E",
"-. c #A97872",
";. c #93847D",
":. c #9F877E",
">. c #9F897D",
",. c #A08A76",
"<. c #A2877D",
"1. c #A0887E",
"2. c #B4877D",
"3. c #C38573",
"4. c #DC8F7D",
"5. c #DD9274",
"6. c #E18C6E",
"7. c #F38F6F",
"8. c #F19871",
"9. c #F89678",
"0. c #FF9F7F",
"q. c #FEA07C",
"w. c #3F4B82",
"e. c #414A81",
"r. c #4C5989",
"t. c #505C8E",
"y. c #497288",
"u. c #5A6798",
"i. c #5F6E9B",
"p. c #5D709B",
"a. c #7B7987",
"s. c #606E9B",
"d. c #61709A",
"f. c #5D6CA2",
"g. c #5D70A1",
"h. c #8A7D81",
"j. c #907D80",
"k. c #5C8795",
"l. c #7A858D",
"z. c #638D9A",
"x. c #6995A4",
"c. c #6C9BAC",
"v. c #7399AC",
"b. c #4F80C9",
"n. c #5891D7",
"m. c #6999CA",
"M. c #5E9FEA",
"N. c #4697F0",
"B. c #4599F3",
"V. c #449AF5",
"C. c #5EA2ED",
"Z. c #66AAF5",
"A. c #64AFFF",
"S. c #64B0FF",
"D. c #9E8982",
"F. c #998885",
"G. c #90899E",
"H. c #9B9194",
"J. c #A18780",
"K. c #A38982",
"L. c #AC9990",
"P. c #8F99AC",
"I. c #AA9FA7",
"U. c #E69C86",
"Y. c #EB9E88",
"T. c #FE9E82",
"R. c #D5A599",
"E. c #EBA189",
"W. c #F4A487",
"Q. c #FEA081",
"!. c #F3A48B",
"~. c #F5A98E",
"^. c #FAA88E",
"/. c #EAAA99",
"(. c #F5A791",
"). c #F8A793",
"_. c #F5A991",
"`. c #F5AA96",
"'. c #C8AAAF",
"]. c #8AA2CE",
"[. c #ABABC8",
"{. c #88B3E5",
"}. c #A3C9CA",
"|. c #A6C8D0",
/* pixels */
"                            .   X   X X .   X   X X       .     X   X       .     +                                             ",
"  - 8 8 8 8 8 8 8 8 8 8 #   $ $ $ $ # $ # # $ $ $ #   * e e e e e e e e u 0 0 u   X $ # # # # # # # # # $ @   : 8 8 8 8 8 8 -   ",
"  d O.O.O.+.O.O.O.O.O.O.5 + <.<.>.>.1.1.K.<.>.>.1.1.O e O.O.O.O.+.O.O.O.O.O.O.O.+ = J.>.1.1.:.<.1.1.1.1.>.&.  K O.O.O.O.O.O.s   ",
"  d O.O.O.O.O.O.O.O.O.O.5 + <.<.K.>.1.1.<.<.J.<.1.1.O e O.O.O.O.O.O.O.O.O.O.O.O.@ = <.>.1.1.<.>.1.1.1.1.:.*.O K O.O.O.O.O.O.s   ",
"  d O.+.O.O.O.O.O.O.O.O.5 + D.>.1.1.1.1.1.1.>.1.:.1.  e O.O.O.O.O.O.O.O.O.O.O.O.+ = >.<.1.1.D.<.1.1.1.1.1.&.  K O.O.O.O.O.O.a   ",
"  d O.O.O.+.+.+.O.O.O.O.5 + >.<.1.1.1.1.>.1.1.1.1.1.O e O.O.O.O.O.O.O.O.O.O.O.O.@ = <.>.>.>.<.<.:.1.1.1.1.*.  K O.O.O.O.O.O.d   ",
"  d O.O.O.O.+.+.O.O.O.O.7 + <.J.<.J.<.<.<.<.<.>.:.1.  0 +.+.+.+.O.O.O.O.O.O.+.O.@ = 1.<.<.J.<.J.1.K.1.K.J.*.  K O.O.O.O.O.O.d   ",
"  s +.+.+.+.+.+.+.+.O.O.5 + K.<.1.<.K.K.<.K.<.<.K.<.. 9 O.O.O.O.O.O.O.O.O.O.O.O.. = 1.1.K.1.<.<.1.<.<.K.1.&.  K O.O.O.O.O.O.d   ",
"                                                [                                                                               ",
"  e E E E E $ ; J J J J J K L L L P L %   : : , y.S : : : : 8 9.0.9.. 8 7 8 8 7 = < 8 7 7 7 7   K ( ( / / ( W W E T E E E E 0   ",
"  T :.<.:.>.= 8 O.O.O.O.O.O.O.O.O.+.O.:   J.<.>.1.k.J.<.D.8.9.Q.T.q.0.7.O.O.O.O.O.O.O.O.O.} |   / <.1.1.1.1.<.>.1.:.1.:.:.<.T   ",
"  T 1.1.1.>.= 0 O.O.O.O.O.O.O.O.O.O.O.; + <.>.J.1.k.;.J.5.T.Q.Q.0.T.Q.q.7.O.O.O.O.O.O.O.O.O.|   ( <.1.1.1.1.>.>.1.1.1.1.1.1.T   ",
"  T <.<.K.<.; 8 O.+.+.O. .O.O.O.O.O.O.: + 1.1.1.1.a.z.L.c.v.Q.Q.Q.0.0.q.T.+.O.O.O.O.O.O.O.| |   ( >.1.1.J.>.<.>.>.J.<.<.1.<.T   ",
"  T <.>.K.<.= 8 O.O.O.O.O.O.O.O.O.O.O.; X 1.1.1.J.F.z.x.c.v.c.Q.0.0.0.0.q.3.O.O.O.O.O.O.O.O.|   ( >.<.:.<.<.>.K.<.<.<.<.1.<.T   ",
"  I <.1.<.<.; 8 O.O.O.O.O.O.O.O.O.O.+.; X D.1.<.:.X.k.}.}.}.c.q.T.q.T.0.T.9.O.O.O.O.O.O.O.O.|   ( <.>.,.,.<.<.<.1.1.<.<.<.<.T   ",
"  s ) ) ) ) * < T R T T T T T T R T T *   r 0 r r r [ }.|./.(.`.0.T.T.0.T.-.a a e p s a s a a   I | O.| ) O.O.) ) ) ) ) ) ) a   ",
"                                        x x x x     Z G }._.`.`.!.0.0.0.0.                                                      ",
"  i ~ ~ ~ ~ ~ ~ ~ ! ~ ~ 3 : #.#.#.#.#.z x x x x j @.= A n m m -.~.q.0.0.9.^ / ^ X K %.&.&.%.&.&.&.%.#.&.%.#.  J / ! ~ ~ ! / i   ",
"  s O.O.O.O.O.O.O.O.O.O.5 3 :.1.<.<.c x x x m m m n > c B m m m n Q.q.8.O.O.O.O.@ P >.1.,.J.1.1.<.>.<.<.<.*.  I O.O.O.O.O.O.s   ",
"  d O.O.O.O.O.O.O.O.O.O.5 3 1.1.<.z x x x x m m m n g q n m m m m 6.O.O.O.O.O.O.@ Y D.>.<.:.1.1.>.<.D.<.:.*.  T O.O.O.O.O.O.s   ",
"  J O.O. .O.O.O.O.O.O.O.5 , :.<.x x x x x x m m m m m f m m m m ] O.O.O.O.O.O.O.@ P 1.1.>.>.1.D.<.D.>.<.>.*.  I O.O.O.O.O.O.a   ",
"  H O. .O.O.O.O.O.O.O.O.7 3 1.x x x x x x x m m m m m m m m m m O.O.O.O.O.O.O.O.@ P J.1.<.1.1.<.1.1.:.:.<.*.  I O.+.O.O.O.O.d   ",
"  s O.O.O.O.O. .O.O.O.+.5 4 x x x x x x x x x m m m m m m m m m O. .O.O.O.O.O.O.@ P :.1.<.>.>.<.1.>.<.:.D.*.  T +.O.O.O.O.O.d   ",
"  4 p p p p p p p p p p * b x x x x x x x x x m m m m m m m m m i p s s d d C s   8 K K K K K K E W W R W T   8 p p p p p p <   ",
"    @ @ @ @     @ @ @ + n x x x x x x x x x x x n m m m m m m 1 +     @ + @ @ @ o @ @ @ + @ o   X # % % % & @ @ @ @ @ @ O @     ",
"  T 1.1.<.<.- 8 O.+.O.n x x x x x x x x x x x x n m m m m m m J.>.* I <.J.<.<.>.<.1.<.1.<.>.<.  T O.O.O.O.O.O.O.O.O.O.O.O.+.d   ",
"  T 1.1.>.>.- 8 O.O.M x x x x x x x x x x x x x x m m m m m m ,.,.& I >.>.<.>.<.D.<.>.J.<.>.1.  T O.O. . .O.O.O.O.O.O.O.O.O.d   ",
"  T 1.1.J.>.- 8 O.U x x x x x x x x x x x x x x x c m m m m m <.D.& I >.<.D.<.>.<.>.<.>.D.<.1.  T O.O.O.O.O.O.O.O.O.O.O.O.O.s   ",
"  T <.D.J.<.= 8 U x x x x x x x x x x x x x x x x x m m m m ` D.>.& P >.>.D.1.<.>.<.>.<.<.>.:.  T O.+.O.O.O.O.O.O.O.O.O.O.O.a   ",
"  T >.>.J.<.= q x x x x x x x x x x x x x x x x x x h n m x <.J.>.$ I <.>.<.1.>.<.D.J.>.>.<.>.  T O.O.O.O.O.O.O.O.O.O.O.O.O.d   ",
"  T 1.<.J.<.; x x x x x x x x x x x x x x x x x x l l h l h ,.<.>.& L >.>.>.1.1.:.<.J.J.<.>.>.  T  .O.O.O.O.O.O. .O.O.O.O.O.d   ",
"  = 7 7 7 0 F F x x x x x x x x x x x x x x x x y t h h l j k u e X = r i r r i 0 e u u u u e   : 8 7 7 7 6 4 4 4 3 4 4 < < &   ",
"  . % # # % e.w.e.n x x x x x x x x x x x x x # # # h h h l h # # X @ @ # # @ #     & # # @ % X @ # # # # @   : 7 7 5 8 5 7 =   ",
"  9 1.<.<.<.j.e.' e.v x x x x x x x x x x x ) O.O.O.l h h h h h ,.>.<.<.>.<.<.>.  : O.O.O.O.O.O.O.O.O.O.O./   ( <.<.<.<.>.<.E   ",
"  9 <.<.1.<.J.e.e.' e.n x x x x x x x x x { O.O.O.O.X h h h h h l J.<.<.1.1.<.,.  3 O.O.O. .+.+.O.O.O.O.O./   { >.J.D.D.1.:.T   ",
"  9 1.1.1.1.1.<.e.e.e.' V x x x x x x x `  .O.O.O.O.+ $ h h h h l j <.<.1.1.1.1.  3 O.O.O.O.O.+.O.O.O.O.O./   / <.D.<.<.1.1.T   ",
"  9 1.:.1.1.1.K._ e.e.e.' e.x x x x x N N O. .O.O.O.O $ o.h h h l g ` ,.<.1.J.1.  3 | O.O.O.O.O.O.O.+.O.O./   | 1.1.1.<.:.<.T   ",
"  9 >.<.1.1.1.<.<.e.e.e.e.e.e.' N N m N M O.O.O.O.O.X & D.z l h j l l 2.1.1.1.<.  , O.O.O.O.O.O.O.O.O.O. ./   { >.1.1.J.1.1.T   ",
"  e <.>.1.1.<.K.K.K.e.e.e.e.e.e.F N N N M ` O.O.O.O.+ & <.K.h h j h h -.J.<.1.<.  3 O.O.O.O.O.O.O.O.O.O.O./   | J.1.J.<.J.,.T   ",
"                O . e.e.e.e.' e.e.N N N D M   X . +     . . @ l l g 0.T.O                                     O @ @ @ @ @ .     ",
"  8 Y Y T P $ @ : < : e.' e.e.e.e.e.N N N N 0 0 y 0 2.E.^.`.U.E.^.~.`._._.E.Y.U.4.; = = : ; =   0 d K K K J I L K J K d K K 8   ",
"  ! >.>.D.<.: 9 O.O.O...e.e.e.e.e.e.N N N N K.<.1.K.E._._._.~._._._._._._.^._._._.(./.&.F.P.].m.S.{.<.>.>.>.>.>.>.>.1.>.>.,.T   ",
"  ! :.>.D.=.c ' e.' e.' e.e.e.e.e.e.e.M N N F.:.J.L.!._._._._._._._._._._._._._._.(.(.).[.S.S.S.A.Z.S.H.>.<.J.>.1.1.1.1.1.1.I   ",
"  D e.e.e.' ' ' e.e.e.e.e.' e.e.e.e.e.D N m a.:.<.J.`._._._._._.(._._._._._._._._._.(.~.'.N.Z.S.S.S.A.A.D.>.<.>.1.1.1.1.1.<.T   ",
"B e.e.e.e.e.e.e.e.e.e.e.e.e.e.e.' ' D D N N N >.,.J.L.!.^.^.^._._._._.`._.`.`._._._.`._.V.V.N.B.S.S.S.A.D.1.1.<.<.<.J.<.1.<.Y   ",
"e.e.e.e.e.e.e.e.e.e.e.e.' e.e.' ' ' ' D N N N K.<.D.i.i.i.s.s.s.S.S.A.A.S.S.S.'.`._.`.].V.V.B.B.B.N.A.S.J.D.J.<.<._._.~.~.R.Y   ",
"e.e.e.e.e.e.e.e.e.e.e.e.e.' ' ' ' ' D v N N N Q f.i.i.s.i.s.s.s.S.A.A.A.A.A.A.A.S./.^.V.B.B.B.B.B.N.C.A.#.#.#.D.^._._.~._.~.^.  ",
"2 e.e.e.' ' ' e.e.' e.e.e.t.s.d.d.d.u.D N N r.i.s.s.s.s.s.p.p.i.A.A.A.S.A.A.S.A.S.A.S.V.V.B.B.B.B.B.B.A.  .   _._._._._._.^.^.i ",
"O 2 e.e.e._ i.s.s.s.s.s.s.s.s.s.s.s.s.s.s.i.s.s.s.s.s.s.s.g.s.T A.A.A.A.A.A.A.A.A.A.A.A.A.V.N.B.B.N.M.A.6 4 ( _._._._._.~._._._.",
"  0 <.<.,.<.u.s.s.s.s.s.s.s.i.s.s.s.s.s.s.s.s.s.s.i.s.s.s.I.G.e.A.S.A.A.A.A.A.A.A.A.A.A.A.S.Z.N.B.B.S.S.%.R ^._._._._._.(._._._.",
"  0 <.<.,.<.<.p.s.s.s.i.s.s.s.s.s.s.s.s.s.s.s.s.s.s.s.s.e.e.e.e.A.S.A.A.A.S.A.A.A.A.A.A.A.S.S.S.S.A.A.A.h.W U._._._._._._._._._.",
"  0 <.J.<.J.,.w.e.e.e.r.s.s.s.s.s.s.s.s.s.s.s.s.s.s.w.' e.e.e.e.C.S.A.A.A.A.S.A.A.A.A.A.A.A.S.S.A.A.S.A.O.Q   (.~._._._._.~._.Y.",
"  9 >.>.J.J.e.e.e.e.e.e.e.e.e.e.e.u.s.s.i.i.i.i.e.e.e.e.e.e.e.e.n.S.A.A.A.A.A.A.A.A.A.A.A.A.A.Z.A.A.A.A.O.Q   W.~._._.^._._.~.  ",
"  9 :.:.>.<.w.e.e.e.e.e.e.e.e.e.e.e.e.e.e.e.e.e.e.e.' ' e.e.e.e.b.S.A.A.S.S.A.A.A.S.S.S.A.S.A.S.A.S.l.O.O.Q   ! !._.~.^._.W.T   ",
"  # 0 0 0 w e.e.e.e.e.e.e.e.e.e.e.e.e.e.e.e.e.e.e.e.e.' e.e.e.e.U 6 : : : : < :   # 7 7 7 5 7 ; 5 6 5 5 5 ,   u W E $.-.E E 0   ",
"              w.' ' ' F ' e.e.e.F e.' e.e.e.e.e.e.e.] .                                                                         ",
"  Q :.:.>.<.; 8 O.O.O.O.O.O.O.O.O.O.O.; . <.1.>.>.>.>.<.,.<.<.<.<.  # O.O.O.O.O.O.O.+.O.+.+.(   T <.:.:.<.1.:.>.:.:.<.:.<.<.Y   ",
"  Q 1.<.D.1.= 8 O.O.| O.O.O.O.O.O.O.O.; O <.1.1.>.1.1.1.J.1.1.>.>.  $ O.O.O.+.O.O.O.O.O.O.+.{   W 1.1.<.:.>.<.<.:.<.:.1.:.<.T   ",
"  Q <.>.J.>.= 8 O.O.O.O.O.} O.O.O.O.O.: O 1.:.1.>.>.<.>.K.<.1.K.<.  @ +.+.O.O.O.O.O.O.O.O.+.|   W <.<.>.>.1.1.1.1.1.1.1.:.<.I   ",
"  Q >.<.J.>.- 8 O.O.O.O.O.O.O.O.O.O.O.: . :.1.:.1.1.D.<.>.>.<.1.>.  @ +.+.O.O.O.O.O.O.O.+.+./   W <.:.1.1.1.1.>.:.1.:.1.>.<.T   ",
"  Q 1.1.J.<.= 8 O.O.O.O.O.O.O.O.O.O.O.; + <.>.<.1.1.1.1.<.<.<.1.1.  @ O.+.O.O.O.O.O.O.O.O.+.{   W >.>.<.<.J.<.1.>.<.<.<.1.<.T   ",
"  Q <.<.J.<.: 8 O.O.O.O.O.O.O.O.O.O.O.; X K.<.<.1.1.1.1.<.1.<.<.<.  # O.O.O.O.O.O.O.O.O.O.O.(   Q <.<.<.<.J.<.<.<.<.<.<.<.<.T   ",
"  4 a a a a # $ 8 8 8 8 8 8 7 8 8 8 8 @   o o o o o @ @ o o o o o     . . . . . X . . . . . @   4 e r u e u u e i r e u u u <   ",
"@   . X X                                                                                                                       "
};
