/* XPM */
static char *result[] = {
/* columns rows colors chars-per-pixel */
"64 64 217 2 ",
"   c #7F7CBF",
".  c #3D63CA",
"X  c #3C63CB",
"o  c #3E63CB",
"O  c #3D64CA",
"+  c #3C64CB",
"@  c #3D64CB",
"#  c #3D65CB",
"$  c #3E64CA",
"%  c #3E65CA",
"&  c #3E64CB",
"*  c #3F66CB",
"=  c #3863CD",
"-  c #4E6AC7",
";  c #4F6BC7",
":  c #4064C9",
">  c #4165C9",
",  c #4166C9",
"<  c #4065CA",
"1  c #4065CB",
"2  c #4265CA",
"3  c #4166CA",
"4  c #4066CB",
"5  c #4166CB",
"6  c #4266CA",
"7  c #4366CA",
"8  c #4267CA",
"9  c #4367CB",
"0  c #4466C9",
"q  c #4667C9",
"w  c #4466CA",
"e  c #4467CA",
"r  c #4567CA",
"t  c #4467CB",
"y  c #4667CA",
"u  c #4067CC",
"i  c #4167CC",
"p  c #4768C8",
"a  c #4768C9",
"s  c #4468CB",
"d  c #4568CB",
"f  c #4469CB",
"g  c #4768CA",
"h  c #4669CB",
"j  c #4769CB",
"k  c #476ACA",
"l  c #476ACB",
"z  c #4269CD",
"x  c #4569CC",
"c  c #446ACC",
"v  c #456ACC",
"b  c #456ACD",
"n  c #4968C8",
"m  c #4968C9",
"M  c #4969C9",
"N  c #486ACB",
"B  c #4A6BCA",
"V  c #4A6BCB",
"C  c #4C69C8",
"Z  c #4C69C9",
"A  c #4E6AC8",
"S  c #4E6BC9",
"D  c #4A6CCB",
"F  c #4B6CCB",
"G  c #4C6CCB",
"H  c #4D6DCB",
"J  c #4F6ECA",
"K  c #4E6ECB",
"L  c #526BC7",
"P  c #576FC7",
"I  c #516DC9",
"U  c #526CC8",
"Y  c #526DC8",
"T  c #506ECB",
"R  c #516FCB",
"E  c #556FC8",
"W  c #5B71C7",
"Q  c #5F72C6",
"!  c #5370CA",
"~  c #5371CB",
"^  c #5570CA",
"/  c #5470CB",
"(  c #5571CB",
")  c #5671CA",
"_  c #5071CC",
"`  c #5672CC",
"'  c #5872CB",
"]  c #5C72C8",
"[  c #5D75CA",
"{  c #5C75CB",
"}  c #5E75CA",
"|  c #5D76CB",
" . c #6273C6",
".. c #6374C6",
"X. c #6675C5",
"o. c #6977C5",
"O. c #6076CA",
"+. c #6178CB",
"@. c #6278CB",
"#. c #6379CB",
"$. c #6579CB",
"%. c #697DCB",
"&. c #6A7DCB",
"*. c #6C7DCA",
"=. c #6D7ECA",
"-. c #797BC0",
";. c #787AC1",
":. c #817DBE",
">. c #7181CB",
",. c #7282CC",
"<. c #7785CC",
"1. c #7884CB",
"2. c #7B86CB",
"3. c #7C86CB",
"4. c #7C87CB",
"5. c #7B87CC",
"6. c #7C87CC",
"7. c #8C80BB",
"8. c #8F81BB",
"9. c #8A80BC",
"0. c #9182BB",
"q. c #9583BA",
"w. c #9484BB",
"e. c #9785BA",
"r. c #A388B7",
"t. c #A589B7",
"y. c #A88BB7",
"u. c #AD8CB5",
"i. c #AC8CB6",
"p. c #A188B8",
"a. c #B08EB5",
"s. c #B58FB4",
"d. c #B890B3",
"f. c #B890B4",
"g. c #CD97AF",
"h. c #D29AAF",
"j. c #D99BAD",
"k. c #DA9CAD",
"l. c #DD9DAD",
"z. c #DF9EAC",
"x. c #C694B0",
"c. c #CD98B0",
"v. c #E9A1AB",
"b. c #E9A2AA",
"n. c #EAA2AA",
"m. c #ECA3AA",
"M. c #F9A7A7",
"N. c #8088CB",
"B. c #8089CB",
"V. c #838BCC",
"C. c #838CCC",
"Z. c #868CCC",
"A. c #878DCC",
"S. c #898ECC",
"D. c #898FCC",
"F. c #8D92CD",
"G. c #8E92CC",
"H. c #8F93CD",
"J. c #9093CC",
"K. c #9194CD",
"L. c #9394CC",
"P. c #9295CD",
"I. c #9495CC",
"U. c #9496CD",
"Y. c #9B99CC",
"T. c #9B9ACD",
"R. c #9F9BCC",
"E. c #9C9BCE",
"W. c #9F9CCD",
"Q. c #A09CCD",
"!. c #A09DCE",
"~. c #A5A0CE",
"^. c #AEA6CE",
"/. c #B0A5CD",
"(. c #B5A9CE",
"). c #B7A9CE",
"_. c #B6AACE",
"`. c #B8AACE",
"'. c #B8ABCE",
"]. c #BBACCE",
"[. c #BFAECE",
"{. c #C0AFCE",
"}. c #C1AFCE",
"|. c #C2B0CE",
" X c #C7B2CE",
".X c #C8B3CE",
"XX c #C9B4CE",
"oX c #C9B5CF",
"OX c #CBB5CE",
"+X c #CDB6CE",
"@X c #CDB7CF",
"#X c #CFB7CE",
"$X c #CEB8CF",
"%X c #D0B8CE",
"&X c #D1B9CF",
"*X c #D2BACF",
"=X c #D4BACE",
"-X c #D5BBCF",
";X c #DFC0CE",
":X c #E0C1CE",
">X c #E1C1CF",
",X c #E6C4CF",
"<X c #E6C5CF",
"1X c #E8C5CE",
"2X c #EAC7CF",
"3X c #ECC8CF",
"4X c #EDC9CF",
"5X c #EFC9CE",
"6X c #EEC9CF",
"7X c #F0CACF",
"8X c #F3CCCF",
"9X c #F4CCCF",
"0X c #F5CDCF",
"qX c #F7CECF",
"wX c #F8CECF",
"eX c #F9CFCF",
"rX c None",
/* pixels */
"rXrXrXrXrXrXrXrXrXrXrXrXrXrXrXrXrXrXrXrXrXrXrXrXrXrXrXrXrXrXrXrXrXrXrXrXrXrXrXrXrXrXrXrXrXrXrXrXrXrXrXrXrXrXrXrXrXrXrXrXrXrXrXrX",
"rXrXrXrXrXrXrXrXrXrXrXrXrXrXrXrXrXrXrXrXrXrXrXrXrXrXrXrXrXrXrXrXrXrXrXrXrXrXrXrXrXrXrXrXrXrXrXrXrXrXrXrXrXrXrXrXrXrXrXrXrXrXrXrX",
"rXrXrXrXrXrXrXrXrXrXrXrXrXrXrXrXrXrXrXrXrXrXrXrXrXrXrXrXrXrXrXrXrXrXrXrXrXrXrXrXrXrXrXrXrXrXrXrXrXrXrXrXrXrXrXrXrXrXrXrXrXrXrXrX",
"rXrXrXrXf ` ` ` ` ` ` ` ` ` ` ` ` ` ` ` ` ` ` ` ` ` ` ` ` ` ` ` ` ` ` ` ` ` ` ` ` ` ` ` ` ` ` ` ` ` ` ` ` ` ` ` ` ` _ i rXrXrXrX",
"rXrXrXb ^.3X3X3X3X3X3X3X3X3X3X3X3X3X3X6XeXeXeX8X3X3X3X3X3X3X3X3X3X3X3X3X3X3X3X3X8XeXeXeX6X3X3X3X3X3X3X3X3X3X3X3X3X3X3X= rXrXrXrX",
"rXrX& O 6 e e e e e e e e e e e e e e 4 4.eX[.4 e e e e e e e e e e e e e e e e 4 {.eX2.4 e e e e e e e e e e e e e e $ $ % rXrX",
"rXrX; M.M.M.M.M.M.M.M.M.M.M.M.M.M.M.M.v.j eXF.p.M.M.M.M.M.M.M.M.M.M.M.M.M.M.M.M.p.F.eXj v.M.M.M.M.M.M.M.M.M.M.M.M.M.M.M.M.; rXrX",
"rXrXU M.M.M.M.M.M.M.M.M.M.M.M.M.M.M.M.n.h eXF.r.M.M.M.M.M.M.M.M.M.M.M.M.M.M.M.M.r.F.eXh n.M.M.M.M.M.M.M.M.M.M.M.M.M.M.M.M.U rXrX",
"rXrXU M.M.M.M.M.M.M.M.M.M.M.M.M.M.M.M.n.h eXF.r.M.M.M.M.M.M.M.M.M.M.M.M.M.M.M.M.r.F.eXh n.M.M.M.M.M.M.M.M.M.M.M.M.M.M.M.M.U rXrX",
"rXrXU M.M.M.M.M.M.M.M.M.M.M.M.M.M.M.M.n.h eXF.r.M.M.M.M.M.M.M.M.M.M.M.M.M.M.M.M.r.F.eXh n.M.M.M.M.M.M.M.M.M.M.M.M.M.M.M.M.U rXrX",
"rXrXU M.M.M.M.M.M.M.M.M.M.M.M.M.M.M.M.n.h eXF.r.M.M.M.M.M.M.M.M.M.M.M.M.M.M.M.M.r.F.eXh n.M.M.M.M.M.M.M.M.M.M.M.M.M.M.M.M.U rXrX",
"rXrXU M.M.M.M.M.M.M.M.M.M.M.M.M.M.M.M.n.h eXF.r.M.M.M.M.M.M.M.M.M.M.M.M.M.M.M.M.r.F.eXh n.M.M.M.M.M.M.M.M.M.M.M.M.M.M.M.M.U rXrX",
"rXrXU M.M.M.M.M.M.M.M.M.M.M.M.M.M.M.M.n.h eXF.r.M.M.M.M.M.M.M.M.M.M.M.M.M.M.M.M.r.F.eXh n.M.M.M.M.M.M.M.M.M.M.M.M.M.M.M.M.U rXrX",
"rXrXr x.x.x.x.x.x.x.x.x.x.x.x.x.x.x.x.s.D eXK.:.x.x.x.x.x.x.x.x.x.x.x.x.x.x.x.x.:.P.eXV s.x.x.x.x.x.x.x.x.x.x.x.x.x.x.x.x.r rXrX",
"rXrX< t { &.&.&.&.&.&.&.&.&.&.&.&.&.&.=.).eX>X1.&.&.&.&.&.&.&.&.&.&.&.&.&.&.&.&.1.>XeX(.=.&.&.&.&.&.&.&.&.&.&.&.&.&.&.5 r * rXrX",
"rXrXrXv _.eXeXeXeXeXeXeXeXeXeXeXeXeXeXeXeXeXeXeXeXeXeXeXeXeXeXeXeXeXeXeXeXeXeXeXeXeXeXeXeXeXeXeXeXeXeXeXeXeXeXeXeXeXeX= rXrXrXrX",
"rXrX5 O 5 s s s s @.7X4X| s s s s s s s s s s s s s s s s d Y.eX[.N s s s s s s s s s s s s s s s s K =XeX7X+.s s s s O O , rXrX",
"rXrXC m.m.m.m.m.m.] #XXX .m.m.m.m.m.m.m.m.m.m.m.m.m.m.m.m.c.( eXB.t.m.m.m.m.m.m.m.m.m.m.m.m.m.m.m.m.9.E.eX#X] m.m.m.m.m.m.C rXrX",
"rXrXU M.M.M.M.M.M...@X Xo.M.M.M.M.M.M.M.M.M.M.M.M.M.M.M.M.l.! eXN.a.M.M.M.M.M.M.M.M.M.M.M.M.M.M.M.M.q.T.eX@X..M.M.M.M.M.M.U rXrX",
"rXrXU M.M.M.M.M.M...@X Xo.M.M.M.M.M.M.M.M.M.M.M.M.M.M.M.M.l.! eXN.a.M.M.M.M.M.M.M.M.M.M.M.M.M.M.M.M.q.T.eX@X..M.M.M.M.M.M.U rXrX",
"rXrXU M.M.M.M.M.M...@X Xo.M.M.M.M.M.M.M.M.M.M.M.M.M.M.M.M.l.! eXN.a.M.M.M.M.M.M.M.M.M.M.M.M.M.M.M.M.q.T.eX@X..M.M.M.M.M.M.U rXrX",
"rXrXU M.M.M.M.M.M...@X Xo.M.M.M.M.M.M.M.M.M.M.M.M.M.M.M.M.l.! eXN.a.M.M.M.M.M.M.M.M.M.M.M.M.M.M.M.M.q.T.eX@X..M.M.M.M.M.M.U rXrX",
"rXrXU M.M.M.M.M.M...@X Xo.M.M.M.M.M.M.M.M.M.M.M.M.M.M.M.M.l.! eXN.a.M.M.M.M.M.M.M.M.M.M.M.M.M.M.M.M.q.T.eX@X..M.M.M.M.M.M.U rXrX",
"rXrXU M.M.M.M.M.M...@X Xo.M.M.M.M.M.M.M.M.M.M.M.M.M.M.M.M.l.! eXN.a.M.M.M.M.M.M.M.M.M.M.M.M.M.M.M.M.q.T.eX@X..M.M.M.M.M.M.U rXrX",
"rXrXa h.h.h.h.h.h.E &XoXW h.h.h.h.h.h.h.h.h.h.h.h.h.h.h.h.f.) eXV.w.h.h.h.h.h.h.h.h.h.h.h.h.h.h.h.h.  W.eX%XE h.h.h.h.h.h.p rXrX",
"rXrX8 q ^ } } } } 4.0X8X1.} } } } } } } } } } } } } } } } O./.eX$X#.} } } } } } } } } } } } } } } } %.:XeX9X3.} } } } 0 q > rXrX",
"rXrXrXv _.eXeXeXeXeXeXeXeXeXeXeXeXeXeXeXeXeXeXeXeXeXeXeXeXeXeXeXeXeXeXeXeXeXeXeXeXeXeXeXeXeXeXeXeXeXeXeXeXeXeXeXeXeXeX= rXrXrXrX",
"rXrX8 5 F R R R R R R R R R R R R R R / Q.eX=X| R R R R R R R R R R R R R R R R | =XeXR./ R R R R R R R R R R R R R R < 3 8 rXrX",
"rXrXM z.z.z.z.z.z.z.z.z.z.z.z.z.z.z.z.g.N eXH.8.z.z.z.z.z.z.z.z.z.z.z.z.z.z.z.z.8.H.eXk g.z.z.z.z.z.z.z.z.z.z.z.z.z.z.z.z.M rXrX",
"rXrXU M.M.M.M.M.M.M.M.M.M.M.M.M.M.M.M.n.h eXF.r.M.M.M.M.M.M.M.M.M.M.M.M.M.M.M.M.r.F.eXh n.M.M.M.M.M.M.M.M.M.M.M.M.M.M.M.M.U rXrX",
"rXrXU M.M.M.M.M.M.M.M.M.M.M.M.M.M.M.M.n.h eXF.r.M.M.M.M.M.M.M.M.M.M.M.M.M.M.M.M.r.F.eXh n.M.M.M.M.M.M.M.M.M.M.M.M.M.M.M.M.U rXrX",
"rXrXU M.M.M.M.M.M.M.M.M.M.M.M.M.M.M.M.n.h eXF.r.M.M.M.M.M.M.M.M.M.M.M.M.M.M.M.M.r.F.eXh n.M.M.M.M.M.M.M.M.M.M.M.M.M.M.M.M.U rXrX",
"rXrXU M.M.M.M.M.M.M.M.M.M.M.M.M.M.M.M.n.h eXF.r.M.M.M.M.M.M.M.M.M.M.M.M.M.M.M.M.r.F.eXh n.M.M.M.M.M.M.M.M.M.M.M.M.M.M.M.M.U rXrX",
"rXrXU M.M.M.M.M.M.M.M.M.M.M.M.M.M.M.M.n.h eXF.r.M.M.M.M.M.M.M.M.M.M.M.M.M.M.M.M.r.F.eXh n.M.M.M.M.M.M.M.M.M.M.M.M.M.M.M.M.U rXrX",
"rXrXU M.M.M.M.M.M.M.M.M.M.M.M.M.M.M.M.n.h eXF.r.M.M.M.M.M.M.M.M.M.M.M.M.M.M.M.M.r.F.eXh n.M.M.M.M.M.M.M.M.M.M.M.M.M.M.M.M.U rXrX",
"rXrXZ m.m.m.m.m.m.m.m.m.m.m.m.m.m.m.m.k.l eXG.e.m.m.m.m.m.m.m.m.m.m.m.m.m.m.m.m.e.G.eXl k.m.m.m.m.m.m.m.m.m.m.m.m.m.m.m.m.Z rXrX",
"rXrX6 . 5 s s s s s s s s s s s s s s j I.eX+XK s s s s s s s s s s s s s s s s J @XeXL.j s s s s s s s s s s s s s s X + 2 rXrX",
"rXrXrXv _.eXeXeXeXeXeXeXeXeXeXeXeXeXeXeXeXeXeXeXeXeXeXeXeXeXeXeXeXeXeXeXeXeXeXeXeXeXeXeXeXeXeXeXeXeXeXeXeXeXeXeXeXeXeX= rXrXrXrX",
"rXrX# g [ &.&.&.&.D.qX0XZ.&.&.&.&.&.&.&.&.&.&.&.&.&.&.&.&.*.].eX-X>.&.&.&.&.&.&.&.&.&.&.&.&.&.&.&.&.<.,XeXqXS.&.&.&.&.r g o rXrX",
"rXrXy x.x.x.x.x.x.Y *XOXP x.x.x.x.x.x.x.x.x.x.x.x.x.x.x.x.i.' eXC.7.x.x.x.x.x.x.x.x.x.x.x.x.x.x.x.x.;.!.eX*XY x.x.x.x.x.x.y rXrX",
"rXrXU M.M.M.M.M.M...@X Xo.M.M.M.M.M.M.M.M.M.M.M.M.M.M.M.M.l.! eXN.a.M.M.M.M.M.M.M.M.M.M.M.M.M.M.M.M.q.T.eX@X..M.M.M.M.M.M.U rXrX",
"rXrXU M.M.M.M.M.M...@X Xo.M.M.M.M.M.M.M.M.M.M.M.M.M.M.M.M.l.! eXN.a.M.M.M.M.M.M.M.M.M.M.M.M.M.M.M.M.q.T.eX@X..M.M.M.M.M.M.U rXrX",
"rXrXU M.M.M.M.M.M...@X Xo.M.M.M.M.M.M.M.M.M.M.M.M.M.M.M.M.l.! eXN.a.M.M.M.M.M.M.M.M.M.M.M.M.M.M.M.M.q.T.eX@X..M.M.M.M.M.M.U rXrX",
"rXrXU M.M.M.M.M.M...@X Xo.M.M.M.M.M.M.M.M.M.M.M.M.M.M.M.M.l.! eXN.a.M.M.M.M.M.M.M.M.M.M.M.M.M.M.M.M.q.T.eX@X..M.M.M.M.M.M.U rXrX",
"rXrXU M.M.M.M.M.M...@X Xo.M.M.M.M.M.M.M.M.M.M.M.M.M.M.M.M.l.! eXN.a.M.M.M.M.M.M.M.M.M.M.M.M.M.M.M.M.q.T.eX@X..M.M.M.M.M.M.U rXrX",
"rXrXU M.M.M.M.M.M...@X Xo.M.M.M.M.M.M.M.M.M.M.M.M.M.M.M.M.l.! eXN.a.M.M.M.M.M.M.M.M.M.M.M.M.M.M.M.M.q.T.eX@X..M.M.M.M.M.M.U rXrX",
"rXrXA M.M.M.M.M.M.Q $X.XX.M.M.M.M.M.M.M.M.M.M.M.M.M.M.M.M.j./ eXB.u.M.M.M.M.M.M.M.M.M.M.M.M.M.M.M.M.0.E.eX$XQ M.M.M.M.M.M.- rXrX",
"rXrX: @ 6 e e e e / 5X2XT e e e e e e e e e e e e e e e e 4 J.eX).4 e e e e e e e e e e e e e e e e x $XeX6X~ e e e e $ & 3 rXrX",
"rXrXrXc ^.3X3X3X3XeXeXeXwX3X3X3X3X3X3X3X3X3X3X3X3X3X3X3X3X7XeXeXeX9X3X3X3X3X3X3X3X3X3X3X3X3X3X3X3X3X0XeXeXeXeX3X3X3X3X= rXrXrXrX",
"rXrXrXw $.1.1.1.1.1.1.1.1.1.1.1.1.1.1.6.|.eX<XZ.1.1.1.1.1.1.1.1.1.1.1.1.1.1.1.1.A.<XeX}.5.1.1.1.1.1.1.1.1.1.1.1.1.1.1.1 7 rXrXrX",
"rXrX8 f.d.d.d.d.d.d.d.d.d.d.d.d.d.d.d.y.H eXU.-.d.d.d.d.d.d.d.d.d.d.d.d.d.d.d.d.-.U.eXG y.d.d.d.d.d.d.d.d.d.d.d.d.d.d.d.f.8 rXrX",
"rXrXU M.M.M.M.M.M.M.M.M.M.M.M.M.M.M.M.n.h eXF.r.M.M.M.M.M.M.M.M.M.M.M.M.M.M.M.M.r.F.eXh n.M.M.M.M.M.M.M.M.M.M.M.M.M.M.M.M.U rXrX",
"rXrXU M.M.M.M.M.M.M.M.M.M.M.M.M.M.M.M.n.h eXF.r.M.M.M.M.M.M.M.M.M.M.M.M.M.M.M.M.r.F.eXh n.M.M.M.M.M.M.M.M.M.M.M.M.M.M.M.M.U rXrX",
"rXrXU M.M.M.M.M.M.M.M.M.M.M.M.M.M.M.M.n.h eXF.r.M.M.M.M.M.M.M.M.M.M.M.M.M.M.M.M.r.F.eXh n.M.M.M.M.M.M.M.M.M.M.M.M.M.M.M.M.U rXrX",
"rXrXU M.M.M.M.M.M.M.M.M.M.M.M.M.M.M.M.n.h eXF.r.M.M.M.M.M.M.M.M.M.M.M.M.M.M.M.M.r.F.eXh n.M.M.M.M.M.M.M.M.M.M.M.M.M.M.M.M.U rXrX",
"rXrXU M.M.M.M.M.M.M.M.M.M.M.M.M.M.M.M.n.h eXF.r.M.M.M.M.M.M.M.M.M.M.M.M.M.M.M.M.r.F.eXh n.M.M.M.M.M.M.M.M.M.M.M.M.M.M.M.M.U rXrX",
"rXrXU M.M.M.M.M.M.M.M.M.M.M.M.M.M.M.M.n.h eXF.r.M.M.M.M.M.M.M.M.M.M.M.M.M.M.M.M.r.F.eXh n.M.M.M.M.M.M.M.M.M.M.M.M.M.M.M.M.U rXrX",
"rXrXL M.M.M.M.M.M.M.M.M.M.M.M.M.M.M.M.b.h eXF.r.M.M.M.M.M.M.M.M.M.M.M.M.M.M.M.M.r.F.eXh b.M.M.M.M.M.M.M.M.M.M.M.M.M.M.M.M.L rXrX",
"rXrX@ n S I I I I I I I I I I I I I I B ,.eX`.9 I I I I I I I I I I I I I I I I 9 '.eX>.B I I I I I I I I I I I I I I m M @ rXrX",
"rXrXrXz ~.;X;X;X;X;X;X;X;X;X;X;X;X;X;X>XqXeXeX1X;X;X;X;X;X;X;X;X;X;X;X;X;X;X;X;X1XeXeXqX>X;X;X;X;X;X;X;X;X;X;X;X;X;X;X= rXrXrXrX",
"rXrXrXrXf ` ` ` ` ` ` ` ` ` ` ` ` ` ` ` ` ` ` ` ` ` ` ` ` ` ` ` ` ` ` ` ` ` ` ` ` ` ` ` ` ` ` ` ` ` ` ` ` ` ` ` ` ` _ u rXrXrXrX",
"rXrXrXrXrXrXrXrXrXrXrXrXrXrXrXrXrXrXrXrXrXrXrXrXrXrXrXrXrXrXrXrXrXrXrXrXrXrXrXrXrXrXrXrXrXrXrXrXrXrXrXrXrXrXrXrXrXrXrXrXrXrXrXrX",
"rXrXrXrXrXrXrXrXrXrXrXrXrXrXrXrXrXrXrXrXrXrXrXrXrXrXrXrXrXrXrXrXrXrXrXrXrXrXrXrXrXrXrXrXrXrXrXrXrXrXrXrXrXrXrXrXrXrXrXrXrXrXrXrX",
"rXrXrXrXrXrXrXrXrXrXrXrXrXrXrXrXrXrXrXrXrXrXrXrXrXrXrXrXrXrXrXrXrXrXrXrXrXrXrXrXrXrXrXrXrXrXrXrXrXrXrXrXrXrXrXrXrXrXrXrXrXrXrXrX"
};
