/* XPM */
static char *result[] = {
/* columns rows colors chars-per-pixel */
"64 64 221 2 ",
"   c #010101",
".  c #0A0605",
"X  c #070906",
"o  c #0B0805",
"O  c #0A0709",
"+  c #050908",
"@  c #0B0A09",
"#  c #130E0D",
"$  c #15110E",
"%  c #151212",
"&  c #1A1413",
"*  c #1D1A17",
"=  c #1C1B1A",
"-  c #211A17",
";  c #231E1B",
":  c #28221E",
">  c #2A321E",
",  c #201B20",
"<  c #1C2124",
"1  c #1C3532",
"2  c #2B2422",
"3  c #2E2A26",
"4  c #332A26",
"5  c #352D29",
"6  c #3A2F2D",
"7  c #303624",
"8  c #39312E",
"9  c #273A3B",
"0  c #3D3330",
"q  c #373B3A",
"w  c #41362E",
"e  c #403634",
"r  c #443A37",
"t  c #493C37",
"y  c #453939",
"u  c #4A3E3A",
"i  c #39442D",
"p  c #47423E",
"a  c #4D413D",
"s  c #51423F",
"d  c #3A4545",
"f  c #2B595C",
"g  c #2C6667",
"h  c #397A79",
"j  c #414341",
"k  c #4F4140",
"l  c #524441",
"z  c #564944",
"x  c #574C47",
"c  c #5D4D4A",
"v  c #4F514E",
"b  c #575349",
"n  c #5F514A",
"m  c #4B5A59",
"M  c #525754",
"N  c #614F4B",
"B  c #62524D",
"V  c #645651",
"C  c #6B5A54",
"Z  c #6A5C56",
"A  c #705F58",
"S  c #516351",
"D  c #6B645B",
"F  c #74625C",
"G  c #79655D",
"H  c #76695D",
"J  c #7B685E",
"K  c #4B6F6B",
"L  c #576B6B",
"P  c #447C7B",
"I  c #5A7472",
"U  c #567A79",
"Y  c #796664",
"T  c #7D6B63",
"R  c #7F736A",
"E  c #6D7572",
"W  c #757873",
"Q  c #826E66",
"!  c #836D68",
"~  c #807063",
"^  c #84736B",
"/  c #8A736E",
"(  c #8D7C73",
")  c #897974",
"_  c #937B73",
"`  c #967E79",
"'  c #3E837D",
"]  c #48817C",
"[  c #55807F",
"{  c #648577",
"}  c #87956F",
"|  c #8E817A",
" . c #928074",
".. c #93837C",
"X. c #9E877C",
"o. c #9F897D",
"O. c #A2877D",
"+. c #A0887E",
"@. c #557C80",
"#. c #368685",
"$. c #3B8686",
"%. c #378985",
"&. c #3A8885",
"*. c #378689",
"=. c #3B8689",
"-. c #378989",
";. c #3B8889",
":. c #3A8691",
">. c #438584",
",. c #4B8584",
"<. c #438B86",
"1. c #4A8984",
"2. c #42868A",
"3. c #448B8A",
"4. c #4B8C8C",
"5. c #568885",
"6. c #528B8B",
"7. c #4C9486",
"8. c #45918A",
"9. c #4D948B",
"0. c #52978B",
"q. c #5A948B",
"w. c #559B8C",
"e. c #5B9D8C",
"r. c #548D91",
"t. c #4E9891",
"y. c #5A9393",
"u. c #579891",
"i. c #648888",
"p. c #758A89",
"a. c #61998C",
"s. c #72918C",
"d. c #639393",
"f. c #6D9593",
"g. c #6F9F9A",
"h. c #779796",
"j. c #769B96",
"k. c #7C9996",
"l. c #769A9B",
"z. c #5CA08C",
"x. c #5EA293",
"c. c #67A68D",
"v. c #75AD8E",
"b. c #79B38D",
"n. c #68A794",
"m. c #75AD95",
"M. c #79B597",
"N. c #7BBD96",
"B. c #74B49B",
"V. c #7ABD99",
"C. c #868B87",
"Z. c #958783",
"A. c #9D8982",
"S. c #8D9189",
"D. c #98918C",
"F. c #879995",
"G. c #959A96",
"H. c #A18780",
"J. c #A38B83",
"K. c #A18E88",
"L. c #A4958C",
"P. c #AB968D",
"I. c #A69889",
"U. c #A99A95",
"Y. c #AD9B94",
"T. c #86A49B",
"R. c #97A59D",
"E. c #89B590",
"W. c #87BD95",
"Q. c #B8BF8D",
"!. c #AAA29B",
"~. c #B4A495",
"^. c #A5B39A",
"/. c #BABC9B",
"(. c #99A5A2",
"). c #94ADA0",
"_. c #A5A7A2",
"`. c #C2B7A6",
"'. c #95C58E",
"]. c #8BC398",
"[. c #94C493",
"{. c #95C898",
"}. c #9ED198",
"|. c #AACD91",
" X c #BBC798",
".X c #A4D494",
"XX c #AAD493",
"oX c #ABD599",
"OX c #AAD798",
"+X c #B7DE99",
"@X c #BBE399",
"#X c #BBE39C",
"$X c #8DC6A1",
"%X c #95CDA4",
"&X c #9CD3A5",
"*X c #9AD4A6",
"=X c #A1D6A6",
"-X c #A6DCA5",
";X c #A9DBA6",
":X c #A6DCA9",
">X c #A9DBA8",
",X c #BBDDA1",
"<X c #C1CE9E",
"1X c #C3DA95",
"2X c #C4E49B",
"3X c #CCE79C",
"4X c #C4EB9C",
"5X c #CCED9D",
"6X c #D3EF96",
"7X c #D2EF9D",
"8X c #CDF196",
"9X c #CEF19E",
"0X c #D2F197",
"qX c #D1F09D",
"wX c #CCD5A9",
"eX c #C7EBA0",
"rX c #CEEEA1",
"tX c #D1EFA1",
"yX c #CEF1A1",
"uX c #D2F1A1",
"iX c #D0F0A8",
/* pixels */
"                            .   O     +   +   O                 .       X .       +                                             ",
"  * 5 5 5 5 5 5 5 5 5 5 #   $ $ $ $ $ $ $ $ $ $ $ $   & 0 0 e 8 8 e w 8 e 8 8 e   X # # # # # # # # # # $ @   ; 5 5 5 5 5 5 *   ",
"  s Q Q Q ! Q ! ! ! ~ Q 3 + O.O.H.O.+.+.O.O.o.o.o.O.+ 0 ! Q Q Q Q Q Q ! Q Q Q ! @ * +.A.o.+.o.+.+.+.+.+.O.`   z Q Q Q Q ! Q s   ",
"  s Q Q Q ! Q Q ! ! ! Q 3 + o.O.O.O.+.+.O.o.O.o.O.O.+ 0 Q Q ! ! Q Q Q ^ Q Q Q Q O * +.O.+.+.+.+.+.o.+.+.A.`   z Q Q ! Q ! ! a   ",
"  s ! ! Q Q Q Q Q Q Q ! 3 + o.O.+.+.+.+.o.O.o.O.o.O.X 0 T ! Q Q Q Q Q Q Q Q Q ! @ * o.o.o.O.O.A.o.+.O.O.o. .  x Q Q Q Q Q Q s   ",
"  s ! ! Q Q Q Q Q Q Q Q 3 + o.o.+.+.+.+.A.o.O.A.O.H.X 0 ! ! Q Q Q Q Q Q Q Q Q Q @ * o.o.o.o.O.o.+.+.H.O.O.`   z Q Q Q Q Q Q s   ",
"  s Q ! ! ! Q Q Q Q Q Q 4 + O.O.+.+.O.O.O.O.O.O.H.O.+ 0 ! Q Q Q Q Q Q Q Q Q ! ! X * +.O.H.O.O.O.+.O.O.H.H. .  z Q Q Q Q ! ! s   ",
"  s ! ! Q ! ! / ^ Q Q Q 3 + O.H.H.+.+.J.O.H.O.O.O.+.  8 ! Q Q Q Q Q Q ~ Q Q Q ~ o * +.J.+.H.O.O.+.H.H.O.O.`   z Q Q Q Q Q ! a   ",
"                                                                .                                                               ",
"  0 V V V V $ ; l l l l s x c c x c x $   ; ; ; ; : * * ; ; ; ; -   . 5 4 4 4 5 * 2 5 4 4 4 4   x G F G F F Z V V B V V V V 8   ",
"  B +.+.O.o.* 5 Q ! Q Q Q Q Q / F.6.4.U % A.A.+.A.o.o.H.o.+.+.+.+.  ; ! Q ^ Q Q Q Q Q Q Q Q Y   G o.O.o.O.+.o.o.+.+.+.+.+.O.B   ",
"  B +.+.A.o.* 8 Q Q ~ Q Q Q Q j.$.$.$.;.U A.+.A.o.O.H.+.+.+.+.+.+.  - ! Q Q Q Q ^ Q Q Q Q Q T   G o.o.+.o.O.O.o.+.+.o.+.+.+.B   ",
"  B O.O.H.O.- 5 Q Q ) ,.0.F.k.*.4.%X{.<.*.T.R.y.3.F.Y.A.O.+.+.+.+.  ; Q Q Q ~ Q T Q Q Q Q Q T   G O.o.o.O.o.O.O.O.O.+.+.+.O.B   ",
"  B o.O.O.O.- 5 T ^ -.$.$.$.-.3.].>X;X$X<.$.$.;.$.=.y.J.+.+.+.+.+.  ; ! Q Q Q ~ Q ! Q Q ^ T Y   F O.o.O.o.O.o.o.O.O.+.+.o.O.B   ",
"  B O.+.O.O.- 5 ! ] w.&X%XM.M.&X>X>X;X>X&XV.B.%X&Xt.2._.o.o.o.o.+.  ; ! Q ! ^ W Q Q Q T Q Q T   G o.O.o.O.O.+.O.O.O.O.O.O.O.B   ",
"  p J J J J & 2 B $.n.;X:X:X:X;X>X;X:X>X:X:X>X>X>Xn.' E r r r r y   % u u u m m 8 t u a M p t   n Q T T Q ~ J J J J J J J J u   ",
"                  f 7.-X;X;X>X>X>X>X>X>X>X>X>X>X:X0.g d           1 9 .     q g j +   9 g h                                     ",
"  r A D A A F Z D I &.%X:X:X>X>X>X>X>X>X>X>X>X;X%X*.h 5 A F F F F E I ) A Y S.P L l _ G.>.R.( _ _ / _ _ ( /   l A A Z F A F e   ",
"  s Q Q Q Q Q Q Q ^ &.B.:X>X>X>X>X>X>X;X>X>X:X>XB.$.I 5 ! Q ! ! T ! U U Z.Q ` P h N H.y.#.Y.O.O.O.o.X.O.O. .  n ! R Q ~ Q Q s   ",
"  s Q Q Q Q Q Q Q Q $.0.;X>X>X>X>X>X>X>X>X>X>X>X9.-.M 3 ! ! Q Q ! ! Q U p.! Q f.U c O.h.h.O.o.O.X.o.o.X.o.`   n ! ! Q T ! Q a   ",
"  s Q ^ ! ! Q Q ! Q [ $.%X:X:X:X>X>X>X>X>X>X>X*X*.4.: 5 Q ! ! Q ! ^ Q p.s.Q Q Q O N H.H.H.H.l.=.&.$.=.;.*.$.$.&.$.$.$.$.-.f.s   ",
"  a Q Q Q Q T ^ ! ! C.&.B.>X:X:X:X:X>X:X:X:X:XB.*.R.* 5 Q Q Q Q Q Q Q T Q Q ! Q O N +.A.O.H.;.=.$.&.&.&.$.$.&.&.%.$.$.&.$.*.u   ",
"  s Q Q Q ! Q Q ! Q C.$.=.$.$.$.=.=.=.$.=.=.=.:.$.R.: 4 Q Q Q Q Q Q Q Q Q Q Q ! @ c A.+.+.o.;.&.6XwXI.O.O.`   B Q Q Q Q =.2.l   ",
"  2 y y y y r r y M h $.=.=.=.=.=.=.=.2.=.2.=.=.=.*.I & y y y y y y u a k l k l   5 l z x l -.%.yX7XuXtX9XqXuX7XuX5X7X7X2.2.2   ",
"    @ @ @ @   X O 1 $.XXuXuXyXuXtXtXtXtXuXyXtX9XoX&.2.X O @ O @ @     @ @ @ @ @ X @ ] 2.$.=.2.&.-.$.;.$.$.$.=.$.=.=.=.=.*.;..   ",
"  B O.O.+.+.* 8 Q E $.OX9XqX9X9XtXtX9X7X9XqX9X9XOX;.r.O.O.O.O.H.O.& n O.A.O.O.O.O.o.$.$.$.$.$.$.$.&.&.%.$.$.$.$.$.$.$.$.2.$.a   ",
"  B O.O.o.+.* 5 Q S.$.;.$.$.$.$.$.$.$.$.$.$.*.;.;.&.R.O.+.+.+.o.o.& c O.o.O.o.o.O.O.$.$.6XwXP.  B ^ Q Q Q Q Q Q *.;.qX0X$.=.u   ",
"  B O.o.H.+.* 5 Q ! j.;.&.&.$.$.%.&.&.&.&.&.$.;.;.j.O.O.O.O.O.o.o.% b +.O.O.H.O.O.O.#.=.7XtX5XqX9X9X9X9X9X9X9XtX2.=.tXqX$.=.l   ",
"  B J.o.A.O.* 5 ! ..3.$.{.:X>X>X;X;X;X;X;X>X;X{.=.$.Y.H.+.H.l.&.>.h h >.&.&.$.$.$.$.&.$.*.;.;.$.;.=.;.=.=.=.;.$.] $.:.=.2.$.u   ",
"  B o.+.O.O.* 6 ^ f.;.n.>X:X>X>X;X;X>X>X>X>X>X;Xn.;.l.O.H.O.#.;.:.' ' $.&.&.&.&.$.=.$.$.&.$.$.=.*.=.*.=.*.=.;.;.%.$.$.:.$.$.l   ",
"  B O.+.H.+.* 5 S.*.<.&X:X>X>X>X:X:X>X>X>X>X>X>X-X8.=._.H.+.>.=.9X} D H.O.O.O.O.O.O.=.$.qXwXP.  B ! ! ! ! ! ! Q %.;.6X6X$.$.s   ",
"  * 4 3 4 8 @ $ >.-.].;X:X:X>X>X;X:X>X>X>X>X>X>X:X$X*.2.c w h $.9XrX8X@X1X2X5X9XuXqX$.$.7XuX7XuXqXqXqXqXqXqX7XuX=.*.tX7X$.=.&   ",
"  + # # $ % @ d &.a.;X>X>X>X>X>X>X>X>X>X>X>X>X>X>X:Xc.;.[ o h $.%.&.&.;.;.;.$.$.$.-.$.=.&.$.&.$.&.$.=.;.=.$.$.#.' =.=.-.=.=.*   ",
"  6 O.+.o.O.A.$.3.=X>X>X>X>X;X>X>X>X>X>X>X>X>X>X>X;X*X4.$.!.>.&.&.>.] ,.>.>.2.$.$.-.$.-.$.$.;.;.*.;.$.$.$.=.;.$.$.$.$.2.;.=.B   ",
"  6 O.O.+.O.d.*.W.:X>X>X>X>X>X>X>X>X>X>X>X>X>X>X>X>X:XW.$.q.$.&.qX/.P.O.X.O.!.q.&.$.d.G.Z...^ / ..A.G.y.*.=.@.Z.&.=.7X6X&.$.B   ",
"  6 +.+.O.D.-.x.:X:X>X>X>X>X>X>X>X>X>X>X>X>X>X>X>X>X:X;Xw.&.&.&.uX3XQ. XQ.E.] $.U v Q ! Q Q ! ! ! Q Q Q Z.d.*.=.;.&.tXtX$.=.B   ",
"  6 +.+.H.1.$.}.:X>X>X>X>X>X>X>X>X;X;X;X>X>X>X>X>X>X>X;X&X=.$.2.;.;.=.=.=.$.>.^.  ; / D.h.d.3.4.d.j.D./ Q F m $.&.$.*.=.=.=.B   ",
"  6 +.+.s.;.M.:X:X>X>X>X>X>X>X>X;X>X>X>X>X>X>X>X>X>X>X>X:XM.=.$.=.$.,.&.#.4.|.!.+ E 4.2.=.=.*.$.$.*.&.4.G.Y   ..9.;.=.=.=.$.B   ",
"  6 +.K.>.u.>X;X>X>X>X>X>X>X>X>X>X>X;X>X;X;X>X>X>X>X;X>X;X>X$.*.iXwX!.,.>.XX<XY.] $.$.c.[.,X-.*.+X'.c.>.$.d.= Y U.;.=.XX$.$.V   ",
"      f =.{.>X>X>X>X>X>X>X>X>X>X;X;X;X>X;X;X>X>X>X;X;X;X;X;X&.$.0X4X1.*.{.0X|.,.*.0.oX9X9X9X&.;.6XtX7XoX9.$.,.; @ m ;.1.$.=..   ",
"  6 N P w.>X>X>X;X;Xw.$.$.$.=.$.>.2.=.2.$.$.$.$.$.$.$.$.2.&.$.$.&.&.&.e.5X5Xe.$.q.D q ; q { $.2.v.@XyXyX2Xe.;.i.c z i.$.&.$.5   ",
"  C G.&.B.:X>X>X:X:X=.$.=.=.=.:.*.$.=.:.=.=.=.=.$.=.>.,.,.2.=.=.*.&.=.XX8X].$.u./ Q Q | 4.$.;.;.$.4.#XyXuX4Xt.&.!.o.!.=.;.;.B   ",
"  C s.*.{.>X>X>X;X;X$.$.N.V.V.V.N.V.V.V.N.$.$.qXuXH.+.+.o.H.H.~.|.&.0.9X5X<.&.^.! Q Q k.=.k.^ = s.%.T.yX9XyXXX=.3.J.o.d.$.*.V   ",
"  Z i.&.&X>X>X>X;X;X*.$.V.V.V.V.V.V.V.V.V.$.=.uXuXH.H.+.k.l.A./.b.&.M.9X[.$.a.<XT Q Q 6.-.( Y   Y %.r.`.9XuX5Xe.;._.O.(.$.$.B   ",
"  Z $.*.:X>X>X>X;X;X$.$.;.;.;.&.*.;.;.;.;.*.$.qXrX+.H.J.,.,.Y.<Xa.;..X9Xn.$.[.7XT ^ T 4.$.| F   V m.l.H.wX3XtX'.;.T.O.!.$.$.V   ",
"  Z 1.$.=X:X>X>X;X;X$.-.&.$.$.;.$.;.&.;.$.$.=.yXyXO.K.G.,.' E.2X0.*.#XyX9.&.+X5XI.! Q F.=.j./   V +.+.+.P.1X5X+X;.d.O.P.&.=.B   ",
"  n y.$.%X>X>X>X;X;X&.;.V.N.N.N.N.N.N.N.N.$.=.9XtXC q.$.@.#.;.z.<.=.4X9X<.&.5X9X1Xx z A ,.=.*.>.p.../ / /  X3X2X$.3./ ( $.$.l   ",
"    K *.W.>X>X>X;X;X=.;.V.N.V.N.V.V.V.N.N.;.;.9XtXd $.>.< < 9.$.$.*.5X9X<.&.4XuXuXS     = U >.*.=.>.,     b S 4X$.$.  @ $.2.    ",
"  * W *.e.:X:X:X>X>X$.$.*.$.*.$.$.$.$.$.=.=.$.yXrXE $.L z c W.;.-.;.@XuX9.&.,XuXqX4Xk 5 5 5 5 q i.=.i.4 5 j i OX$.d.H | $.6.p   ",
"  6 +.;.>.&X:X:X;X;X$.$.$.=.$.*.=.=.=.=.$.$.=.yXtXS.&.,.P.+.2XW.w.;..XqXn.*.{.tXyXyXeXf.f.Q Q ^ ) *.6.Q T A 7 [.;.F.O.!.$.l.B   ",
"  6 H.(.=.e.>X:X;X;X$.*.V.V.V.V.V.V.V.N.V.$.=.9XrX) 5.*.*.r.m.2XN.$.M.qX{.$.c.yXqX9XrX8.-.` T Q ( $.6.Q ^ A > e.-.L.O.(.$.(.B   ",
"  6 o.L.3.:.W.:X;X;X=.=.V.V.V.V.V.V.V.V.V.$.*.7X7XA.* I 6.$.$.e..X*.q.0X4X3.&.OX8X9XeXv.&.g.`  .l.=.F.Q Q T 7 $.4.J.+.f.>.Y.B   ",
"  6 +.+.L.2.;.$X:X;X$.*.$.-.&.$.;.$.$.&.$.=.;.9X5X/.M ; H.P.q.$.}.7.=.OX9XW.&.7.eXyXyX#X8.%.;.;.*.r.| Q Q Q P %.I.O.!.5.i.J.B   ",
"  6 A.o.o.L.,.=.W.>X=.&.$.#.$.$.=.;.*.=.$.*.=.9X9X].$.L O.H.).*.].W.$.e.6X5Xe.&.e.4XtXyX#Xv.$.$.m. XI.....{ &.d.~.P.s.,.!.A.B   ",
"  % 8 8 6 8 j ;.*.x.$.*.V.V.V.V.V.V.V.V.N.$.$.yX9X.X-.,.x v ,.=..X4X8.$.[.uX2X7.&.9.oXqXuX8X$.$.qXqX0XXX7.&.9.2XqX'.:.U Z B 0   ",
"              < >.$.$.*.V.V.V.V.V.N.V.N.N.=.$.9XyX5Xw.=.;.%.$.5.tXrX.X*.$.XXrX@Xe.$.$.z.'.+X=.&.+X[.a.&.;.e.2X5XXX>.f d         ",
"  V O.+.O.O.* 5 Q F.=.$.;.*.=.=.*.=.=.=.$.$.=.yXtX9X4Xb.=.;.b.2XtXrXyX$.&.<.XX9X3XW.<.$.&.&.;.%.=.;.;.8.W.5X5XXX<.>.G.O.O.O.B   ",
"  C o.+.o.+.* 8 ~ T $.$.$.;.$.$.$.$.$.=.*.$.;.9XrXqX5XuX*.&.uX5XqXrX7X$.&.=.<.].5X9X4X{.n.0.<.<.0.c.{.4XtXyX[.<.' G.o.O.H.O.B   ",
"  C +.+.O.o.* 5 Q Q $.=.V.V.V.V.N.V.V.V.N.$.$.yXtX9X9XrXe.c.qX9XyX9XyX$.%.z.$.%.w.OX9X9XqXyXyX9XuX0X0XqX.Xw.%.[ I.o.O.o.o.O.B   ",
"  C +.+.A.o.* 5 R Q P ;.N.V.V.V.V.V.V.N.V.;.=.0X9XyX9XuXyXeX9XuXyX9XyX;.-.V.n.<.$.$.9.E.XX@X4XeX+XXXM.0.-.2.S.K.o.o.o.o.o.O.B   ",
"  C O.+.H.o.* 5 ! Q >.-.%.%.&.&.$.$.$.$.=.&.$.2.$.*.;.=.=.=.=.*.=.=.*.$.$.$.=.$.$.;.=.$.&.=.=.=.=.$.&.,.p.L.o.o.+.O.+.+.+.O.B   ",
"  C O.O.O.H.* 6 Q Q f.-.$.$.$.$.$.=.$.=.=.=.=.=.=.=.=.=.=.2.=.=.*.=.*.=.*.*.=.=.;.>.>.>.>.$.@.g U F.G.L.+.+.O.O.O.O.O.+.O.+.B   ",
"  3 u u u u @ $ 5 5 5 5 6 5 6 5 5 5 5 #   @ . o . . o o o o o o o     . . . . . .   . .   X O   2 e e e e e e 0 e e e e e e :   ",
"@   .     O                                                                                                                     "
};
