/* XPM */
static char *result[] = {
/* columns rows colors chars-per-pixel */
"64 64 179 2 ",
"   c #010101",
".  c #080705",
"X  c #090907",
"o  c #050908",
"O  c #0C0C0A",
"+  c #130E0D",
"@  c #15100D",
"#  c #171312",
"$  c #1C1A17",
"%  c #1C1C1C",
"&  c #221D1A",
"*  c #1F2223",
"=  c #2A2625",
"-  c #332B27",
";  c #352D29",
":  c #3B312F",
">  c #3C3431",
",  c #403634",
"<  c #443D3B",
"1  c #4A3E3A",
"2  c #50443E",
"3  c #3D3E40",
"4  c #4D4847",
"5  c #584944",
"6  c #564D4A",
"7  c #4F5356",
"8  c #4F5358",
"9  c #525456",
"0  c #5A5553",
"q  c #525659",
"w  c #55595C",
"e  c #695951",
"r  c #4D5C68",
"t  c #5C5E61",
"y  c #5F6060",
"u  c #5A6A77",
"i  c #616364",
"p  c #65666B",
"a  c #6B6A6C",
"s  c #7A6965",
"d  c #63737D",
"f  c #737173",
"g  c #767779",
"h  c #7D7B7A",
"j  c #826D66",
"k  c #836E69",
"l  c #87756C",
"z  c #867571",
"x  c #8D7A74",
"c  c #817C7B",
"v  c #927D76",
"b  c #907E79",
"n  c #8B817E",
"m  c #92817F",
"M  c #9F877D",
"N  c #A2877C",
"B  c #A1887E",
"V  c #637482",
"C  c #67798F",
"Z  c #6B7D8D",
"A  c #787D87",
"S  c #677B91",
"D  c #6A7C91",
"F  c #4E7BB5",
"G  c #4E7BBA",
"H  c #507BB6",
"J  c #517CB9",
"K  c #7A828C",
"L  c #718494",
"P  c #7A8593",
"I  c #7E8996",
"U  c #768B9D",
"Y  c #798B9C",
"T  c #5682B7",
"R  c #768BA0",
"E  c #7A8DA0",
"W  c #658ABF",
"Q  c #5E8DC8",
"!  c #638BC4",
"~  c #608DC8",
"^  c #6B96CF",
"/  c #749ACA",
"(  c #6C96D1",
")  c #6D99D4",
"_  c #719FD7",
"`  c #74A1D7",
"'  c #76A3DC",
"]  c #7FAAE3",
"[  c #8A8583",
"{  c #8F8988",
"}  c #8F8A8B",
"|  c #948582",
" . c #988787",
".. c #978986",
"X. c #998A86",
"o. c #908B89",
"O. c #97908D",
"+. c #9C938D",
"@. c #838B95",
"#. c #8C8B92",
"$. c #878F99",
"%. c #918E95",
"&. c #87929D",
"*. c #9A9595",
"=. c #9D9C9E",
"-. c #A38C86",
";. c #A78E87",
":. c #A6928A",
">. c #A9948E",
",. c #A69693",
"<. c #AA9590",
"1. c #AD9B95",
"2. c #A39B9A",
"3. c #AE9F99",
"4. c #B09F9B",
"5. c #AFA09A",
"6. c #B1A29F",
"7. c #8292A2",
"8. c #8699A6",
"9. c #8B9CAB",
"0. c #939AA1",
"q. c #9E9EA1",
"w. c #8FA0AC",
"e. c #93A1AE",
"r. c #95A5B2",
"t. c #9CA7B6",
"y. c #9BAAB5",
"u. c #A3A4AB",
"i. c #B1A5A2",
"p. c #AAB7BF",
"a. c #83A2CB",
"s. c #96ADCE",
"d. c #95B1CD",
"f. c #95AED1",
"g. c #96B0D4",
"h. c #A6B3C0",
"j. c #ABB6C2",
"k. c #B3BDC8",
"l. c #80AAE4",
"z. c #85AEEA",
"x. c #85B0EA",
"c. c #8AB7EE",
"v. c #8AB7F0",
"b. c #8BB8F1",
"n. c #B6C1C7",
"m. c #BFC9CE",
"M. c #BAC8D8",
"N. c #BAC9DD",
"B. c #B6CAE3",
"V. c #B9CAE2",
"C. c #BDD2E3",
"Z. c #C3C9CF",
"A. c #C2CAD2",
"S. c #CACFD5",
"D. c #C7D1D4",
"F. c #CAD1D4",
"G. c #CDD4D9",
"H. c #D3D9DF",
"J. c #C2CFE2",
"K. c #C4D4E9",
"L. c #D6DBE3",
"P. c #D3DFEC",
"I. c #D9DDEB",
"U. c #D6DFF0",
"Y. c #DDE2E6",
"T. c #D5E1EC",
"R. c #DDE4ED",
"E. c #DBE5F1",
"W. c #E5E6EA",
"Q. c #E4E8EB",
"!. c #EBECEE",
"~. c #ECEFF1",
"^. c #E6EFF9",
"/. c #EEF2F5",
"(. c #E7F0F9",
"). c #EDF2F9",
"_. c #F3F3F5",
"`. c #F1F5F9",
"'. c #FFFFFE",
/* pixels */
"                            .           .   .             .       . .   . .   . o .                                             ",
"  > < ; ; ; ; ; ; ; ; ; @   @ @ @ @ # # # # @ @ @ @   $ > : > , , : > : : : > :     @ @ + + + + + + + + + O   & ; ; ; ; - < >   ",
"  c Y 0.+.l j k j k k j = o B B M M N N N B B B N X.o > k j j j j j j j j k j j o % N M M M M M M M M N M v   5 j j k +.=.Y h   ",
"  c Y Y Y 7.=. .s k j j ; % >.>.<.<.>.>.>.>.<.<.<.1.= 0 m | | | |  .............3 4 3.4.3.5.3.4.4.3.3.M -.v   6  .q.7.I I R h   ",
"  c Y Y.L.t.R Y &.2.m k 6 D Y Y Y Y Y Y Y R U Y Y Y Y Y R Y Y Y Y R Y Y U Y Y U Y Y Y R Y Y U I Y Y Y 1.N -.w $.I U w.S.Y.R h   ",
"  c U W.'.'./.A.9.Y U &.g U p.G.G.G.G.G.G.G.G.G.G.G.G.G.G.G.G.G.G.G.G.G.G.G.G.G.G.G.G.G.G.F.G.G.H.j.U i.u.I L 8.n.~.'.'.Q.U c   ",
"  c Y W.'.'.'.'.'.Q.k.7.Y U e.L.'.'.'.'.'.'.'.'.'.'.'.'.'.'.'.'.'.'.'.'.'.'.'.'.'.'.'.'.'.'.'.'.W.r.Y U E j.I.'.'.'.'.'.Q.U c   ",
"o h Y W.'.'.'.'.'.'.'.'.L.p.Y U 8.n.!.'.'.'.'.'.'.'.'.'.'.'.'.'.'.'.'.'.'.'.'.'.'.'.'.'.'.~.Z.9.U U t.G.'.'.'.'.'.'.'.'.Q.U h   ",
"  q U W.'.'.U./.'.'.'.'.'.'.`.A.9.Y E D S S C C C C C C C C C C C C C C C C C C C C C C D E Y 9.A.`.'.'.'.'.'.'.).T.'.'.Q.U 9   ",
"  f Y W.'.'.f.G / V.'.'.'.'.'.'.'.m.Y D C C C C C C C C C C C C C C C C C C C C C C C S D Y A.'.'.'.'.'.'.'.K./ G f.'.'.Q.U f   ",
"  [ U W.'.'.f.F J G J s.T.'.'.'.'.F.U D C C C C C C C C C C C C C C C C C C C C C C C S D Y S.'.'.'.'.P.s.T F F F f.'.'.Q.U [   ",
"  [ U W.'.'.f.F c.' ~ J F ! U.'.'.F.Y Z C C C C C C C C C C C C C C C C C C C C C C C S D Y S.'.'.P.! F G Q ' c.F f.'.'.Q.U [   ",
"  [ U W.'.'.f.F v.v.v.x.^ H V.'.'.F.U L C C C C C C C C C C C C C C C C C C C C C C C S D Y S.'.'.V.F ^ x.v.v.c.F f.'.'.Q.R [   ",
"  [ U W.'.'.f.F v.v.v.v.' H N.'.'.F.Y D C C C C C C C C C C C C C C C C C C C C C C C D D Y S.'.'.N.F ] v.v.v.c.F f.'.'.Q.U [   ",
"  [ Y W.'.'.f.F v.v.v.v.] F N.'.'.F.U D C C C C C C C C C C C C C C C C C C C C C C C C D Y F.'.'.V.F ] v.v.v.c.F f.'.'.Q.U [   ",
"  g Y W.'.'.f.F v.v.v.b.l.F N.'.'.F.Y Z C C C C C C C C C C C C C C C C C C C C C C C S D Y F.'.'.V.F ] v.v.v.c.G f.'.'.Q.U h   ",
"  9 Y W.'.'.f.F v.v.v.v.] F B.'.'.F.Y L C C C C C C C C C C C C C C C C C C C C C C C D S U S.'.'.V.F l.v.v.v.c.F d.'.'.Q.R 9   ",
"  g U W.'.'.f.F v.v.v.v.] F N.'.'.F.Y D C C C C C C C C C C C C C C C C C C C C C C C C D I S.'.'.N.F l.v.v.v.c.F f.'.'.Q.U f   ",
"  c Y W.'.'.f.F v.v.v.v.l.F V.'.'.D.Y Z C C C C C C C C C C C C C C C C C C C C C C C D D Y S.'.'.V.F l.v.v.v.c.F f.'.'.Q.R c   ",
"  c Y W.'.'.f.F v.v.v.v.l.F V.'.'.D.Y Z C C C C C C C C C C C C C C C C C C C C C C S S D Y S.'.'.N.F l.v.v.v.c.F f.'.'.Q.U c   ",
"  c Y W.'.'.f.F v.v.v.v.] F N.'.'.F.Y D C C C C C C C C C C C C C C C C C C C C C C C C D Y G.'.'.N.F l.v.v.v.c.F f.'.'.Q.U c   ",
"  c U W.'.'.f.F v.v.v.v.] F N.'.'.G.Y D C C C C C C C C C C C C C C C C C C C C C C C C D Y S.'.'.V.F l.v.v.v.c.F f.'.'.Q.U c   ",
"  h U W.'.'.f.F v.v.v.v.l.F V.'.'.F.Y D C C C C C C C C C C C C C C C C C C C C C C C D Z Y S.'.'.N.F l.v.v.v.v.F f.'.'.W.U c   ",
"  a U W.'.'.f.F v.v.v.v.] T V.'.'.F.Y D C C C C C C C C C C C C C C C C C C C C C C C C D Y S.'.'.N.F ] v.v.v.v.G f.'.'.W.U a   ",
"  w U W.'.'.f.G F G H G H H V.'.'.D.Y Z C C C C C C C C C C C C C C C C C C C C C C C S D Y S.'.'.V.F G G G F F F f.'.'.Q.U q   ",
"  [ Y W.'.'.J.f.f.g.f.f.f.f.U.'.'.D.Y Z C C C C C C C C C C C C C C C C C C C C C C C C D Y G.'.'.I.f.f.f.f.f.f.g.C.'.'.Q.L n   ",
"  [ U W.'.'.'.'.'.'.'.'.'.'.'.'.'.F.Y D C C C C C C C C C C C C C C C C C C C C C C C D D Y F.'.'.'.'.'.'.'.'.'.'.'.'.'.Q.U h   ",
"  [ Y W.'.'.'.'.'.'.'.'.'.'.'.'.'.F.Y L C C C C C C C C C C C C C C C C C C C C C C C S D Y F.'.'.'.'.'.'.'.'.'.'.'.'.'.Q.U h   ",
"  [ Y W.'.'.^.E.E.E.R.E.R.E.).'.'.F.Y L C C C C C C C C C C C C C C C C C C C C C C C D Z Y S.'.'.`.E.E.E.R.E.R.E.^.'.'.Q.R c   ",
"  [ U W.'.'.d.F F F F F F G N.'.'.F.Y D C C C C C C C C C C C C C C C C C C C C C C C C D Y F.'.'.M.F F F F F F F f.'.'.Q.R c   ",
"  [ U W.'.'.s.F _ _ _ _ ) F V.'.'.F.Y D C C C C C C C C C C C C C C C C C C C C C C C S D Y S.'.'.N.G ( ) ` ) ` G f.'.'.Q.U h   ",
"  i Y W.'.'.f.F c.v.v.v.l.F V.'.'.D.Y Z C C C C C C C C C C C C C C C C C C C C C C C C D Y S.'.'.V.F l.b.b.b.c.F f.'.'.Q.U y   ",
"  q U W.'.'.f.F v.v.v.v.] F N.'.'.F.Y D C C C C C C C C C C C C C C C C C C C C C C C D D Y S.'.'.V.F l.v.v.v.c.F f.'.'.Q.U i   ",
"  f U Q.'.'.f.F v.v.v.v.] F N.'.'.F.Y D C C C C C C C C C C C C C C C C C C C C C C C C D Y S.'.'.V.F l.v.v.v.c.F f.'.'.Q.U [   ",
"  f U Y.'.'.f.F v.v.v.v.] T V.'.'.F.Y L C C C C C C C C C C C C C C C C C C C C C C C S D Y S.'.'.V.F l.v.v.v.c.F f.'.'.Q.U [   ",
"  f U R.'.'.f.F v.v.c.c.] F N.'.'.F.Y D C C C C C C C C C C C C C C C C C C C C C C C D D Y F.'.'.N.F l.v.v.v.c.F f.'.'.Q.U [   ",
"  f U W.'.'.f.F v.v.v.v.] F B.'.'.F.Y Z C C C C C C C C C C C C C C C C C C C C C C C C D Y S.'.'.N.F l.c.c.v.c.F f.'.'.Q.U [   ",
"  f Y W.'.'.f.F v.v.v.v.] T B.'.'.D.Y D C C C C C C C C C C C C C C C C C C C C C C C C D Y S.'.'.V.F l.c.c.v.c.F f.'.'.Q.U [   ",
"  f Y W.'.'.g.F v.v.v.v.] F N.'.'.F.Y L C C C C C C C C C C C C C C C C C C C C C C C D D Y S.'.'.V.F l.v.v.v.c.G f.'.'.Q.U [   ",
"  7 U W.'.'.s.F v.v.v.v.] F N.'.'.F.U D C C C C C C C C C C C C C C C C C C C C C C C S D Y S.'.'.N.F l.v.v.v.c.F f.'.'.Q.U 9   ",
"  f U W.'.'.s.F v.v.v.v.] F V.'.'.D.Y Z C C C C C C C C C C C C C C C C C C C C C C C C D Y S.'.'.V.F l.v.v.v.c.F f.'.'.R.U a   ",
"  o.Y W.'.'.f.F v.v.v.v.] F N.'.'.F.U L C C C C C C C C C C C C C C C C C C C C C C C D D Y S.'.'.N.F ] v.v.v.v.F f.'.'.Q.U [   ",
"  o.Y W.'.'.f.F v.v.v.v.] F V.'.'.F.U D C C C C C C C C C C C C C C C C C C C C C C C C D Y S.'.'.N.F ] v.v.v.v.F g.'.'.Q.R [   ",
"  } U W.'.'.f.F v.v.v.v.l.T V.'.'.F.Y Z C C C C C C C C C C C C C C C C C C C C C C C C D Y S.'.'.V.F ] v.v.v.v.F f.'.'.Q.U [   ",
"  { Y W.'.'.f.F v.v.v.v.] F N.'.'.F.U L C C C C C C C C C C C C C C C C C C C C C C C D D Y S.'.'.V.F ] v.v.v.c.F f.'.'.Q.U [   ",
"  { U W.'.'.f.F v.v.v.v.] F N.'.'.F.Y D C C C C C C C C C C C C C C C C C C C C C C C C D Y S.'.'.N.F l.v.v.v.c.F f.'.'.Q.U [   ",
"  n U W.'.'.f.F v.v.v.v.] T V.'.'.F.Y D C C C C C C C C C C C C C C C C C C C C C C C C D Y S.'.'.V.F l.v.v.b.c.F f.'.'.Q.R c   ",
"  8 U W.'.'.f.F v.v.v.v.] F N.'.'.D.Y D C C C C C C C C C C C C C C C C C C C C C C C D D Y S.'.'.N.F l.v.v.c.c.G f.'.'.Q.E q   ",
"  i U W.'.'.f.F v.v.v.v.l.H V.'.'.D.Y D S C C C C C C C C C C C C C C C C C C C C C C S D Y S.'.'.V.F l.v.v.v.c.F f.'.'.Q.U h   ",
"  f U W.'.'.f.F v.v.v.v.l.F V.'.'.F.Y Z C C C C C C C C C C C C C C C C C C C C C C C D D Y S.'.'.N.F l.v.v.v.v.F f.'.'.Q.U [   ",
"  f U W.'.'.f.F v.v.v.v.] F V.'.'.F.U Z C C C C C C C C C C C C C C C C C C C C C C C C D Y G.'.'.V.F ' v.v.c.c.G f.'.'.W.U [   ",
"  f Y W.'.'.f.F v.v.v.z.( F V.'.'.F.Y L C C C C C C C C C C C C C C C C C C C C C C C C D Y F.'.'.M.H _ z.x.c.c.F f.'.'.W.U [   ",
"  f Y W.'.'.f.F x.] Q G F W P.'.'.F.Y D C C C C C C C C C C C C C C C C C C C C C C C C D Y S.'.'.P.! F F Q ' c.G f.'.'.Q.Y [   ",
"  f Y W.'.'.f.G G H J f.P.'.'.'.'.S.Y D C C C C C C C C C C C C C C C C C C C C C C C D D Y F.'.'.'.'.P.f.H H H F f.'.'.Q.U [   ",
"  t U W.'.'.s.H / V.`.'.'.'.'.'.'.m.Y D C C C C C C C C C C C C C C C C C C C C C C C C D Y m.'.'.'.'.'.'.'.J.a.F f.'.'.Q.R f   ",
"  7 U W.'.'.P.).'.'.'.'.'.'._.m.e.U Y D C C C C C C C C C C C C C C C C C C C C C C C C D U Y 9.Z._.'.'.'.'.'.'.(.P.'.'.W.U 7   ",
"  o.Y W.'.'.'.'.'.'.'.'.L.h.R Y 8.n.~.'.'.'.'.'.'.'.'.'.'.'.'.'.'.'.'.'.'.'.'.'.'.'.'.'.'._.m.8.U Y t.G.'.'.'.'.'.'.'.'.W.Y [   ",
"  o.U Q.'.'.'.'.'.Q.k.7.U U r.L.'.'.'.'.'.'.'.'.'.'.'.'.'.'.'.'.'.'.'.'.'.'.'.'.'.'.'.'.'.'.'.'.W.r.Y @.$.j.Y.'.'.'.'.'.Q.R [   ",
"  o.U W.'.'._.A.8.K A #.+.P p.G.G.G.F.G.G.G.G.G.G.G.G.G.G.G.G.G.G.G.G.G.G.F.G.G.G.G.G.G.F.G.G.G.G.j.@.<.+.#.#.&.n.!.'.'.W.U [   ",
"  { U Y.H.y.V d #.O.v k m K K K A K A u r $.@.@.@.Y @.@.I I I @.@.u V P P P P K K K K K K K A r A @.} >.-.;.,.*.@.@.e.F.Y.Y [   ",
"  } U I @.%.p 0 j j j j s v x x x x v : = >.:.:.;.<.>.:.;.;.-.-.-.O $ z z x x x v v v v b v l * s >.>.-.-.M N M >.3.#.@.@.Y [   ",
"  s $.q.6.;.& ; j j j j j j j j j j j &   N N N N N -.N -.N -.N B . O s k j j j j j j j j j s   e M N N N N N N N N B >.2.$.[   ",
"  - 2 1 1 1 O # ; ; ; ; ; ; ; ; ; ; ; O   O X X X X . X X X X X X     . . . . . . . X   . . .   = > > , , , , > > , > , , 4 <   ",
"O         .                                                                                                                     "
};
