/* XPM */
static char *result[] = {
/* columns rows colors chars-per-pixel */
"64 64 198 2 ",
"   c #010101",
".  c #080705",
"X  c #090907",
"o  c #060709",
"O  c #050908",
"+  c #0B090A",
"@  c #130E0D",
"#  c #14100E",
"$  c #161312",
"%  c #1A1614",
"&  c #1C1A16",
"*  c #1D1A19",
"=  c #211A17",
"-  c #221D1B",
";  c #25211E",
":  c #29211E",
">  c #1B1D26",
",  c #1D1F2B",
"<  c #1E2127",
"1  c #1E222B",
"2  c #262221",
"3  c #2B2321",
"4  c #2F2925",
"5  c #22232C",
"6  c #27292F",
"7  c #292A2F",
"8  c #312A26",
"9  c #352D29",
"0  c #3A2F2D",
"q  c #3A312E",
"w  c #242632",
"e  c #262A33",
"r  c #2B2B34",
"t  c #272C3B",
"y  c #2B2D3B",
"u  c #302E36",
"i  c #2E3035",
"p  c #2E313C",
"a  c #3C3330",
"s  c #33343C",
"d  c #38383B",
"f  c #3A3A3C",
"g  c #403634",
"h  c #433A35",
"j  c #453A38",
"k  c #4B3E3A",
"l  c #43433E",
"z  c #4F413E",
"x  c #51423F",
"c  c #2E3244",
"v  c #2D324B",
"b  c #343541",
"n  c #373A45",
"m  c #3D3B42",
"M  c #31344B",
"N  c #3A3D4A",
"B  c #333952",
"V  c #353959",
"C  c #3A3F65",
"Z  c #3F4147",
"A  c #3C4049",
"S  c #3F4554",
"D  c #3C4266",
"F  c #3D446A",
"G  c #3D4570",
"H  c #444444",
"J  c #42454C",
"K  c #494648",
"L  c #4A4A4E",
"P  c #544641",
"I  c #564943",
"U  c #594B46",
"Y  c #504A4F",
"T  c #5C4E48",
"R  c #54504D",
"E  c #5D504B",
"W  c #424553",
"Q  c #484B55",
"!  c #504D57",
"~  c #4D525D",
"^  c #555156",
"/  c #5D5657",
"(  c #5C595C",
")  c #614F4B",
"_  c #62534D",
"`  c #655551",
"'  c #665A52",
"]  c #6B5A54",
"[  c #705F58",
"{  c #6D615A",
"}  c #74625B",
"|  c #79665F",
" . c #7B685E",
".. c #4E5461",
"X. c #525663",
"o. c #555966",
"O. c #595D69",
"+. c #414774",
"@. c #434974",
"#. c #454C7B",
"$. c #615E62",
"%. c #5D616D",
"&. c #5F6673",
"*. c #5C6678",
"=. c #6A6668",
"-. c #766461",
";. c #7B6660",
":. c #7D6D67",
">. c #736C6B",
",. c #7E736F",
"<. c #606674",
"1. c #636A77",
"2. c #636C7C",
"3. c #6B6D79",
"4. c #766F71",
"5. c #6D727D",
"6. c #767376",
"7. c #7E7675",
"8. c #826E67",
"9. c #836E68",
"0. c #85746C",
"q. c #8A746E",
"w. c #93786D",
"e. c #8A7671",
"r. c #857A77",
"t. c #8E7B74",
"y. c #8C7E7A",
"u. c #937C74",
"i. c #8F807B",
"p. c #91827C",
"a. c #9F877B",
"s. c #9F887E",
"d. c #A2877D",
"f. c #A0887E",
"g. c #484F85",
"h. c #4A5182",
"j. c #4C558C",
"k. c #4D5493",
"l. c #515895",
"z. c #545E9C",
"x. c #56609E",
"c. c #6D7684",
"v. c #6C7884",
"b. c #737987",
"n. c #777E8D",
"m. c #767F91",
"M. c #565FA2",
"N. c #585FA3",
"B. c #5660A1",
"V. c #7B838D",
"C. c #7B8392",
"Z. c #778598",
"A. c #7B8A9D",
"S. c #8E8381",
"D. c #938481",
"F. c #988884",
"G. c #9D908C",
"H. c #818695",
"J. c #818995",
"K. c #848D9C",
"L. c #888E9A",
"P. c #A18780",
"I. c #A58C84",
"U. c #A78E88",
"Y. c #A69186",
"T. c #A6938E",
"R. c #A89189",
"E. c #AA9591",
"W. c #878FA1",
"Q. c #8A95A5",
"!. c #8B95A5",
"~. c #9399A6",
"^. c #949BAA",
"/. c #949FB2",
"(. c #99A0AE",
"). c #95A0B2",
"_. c #9BA4B3",
"`. c #9FA7BA",
"'. c #9DA9BB",
"]. c #A2AAB9",
"[. c #A3AFC1",
"{. c #AAB4C4",
"}. c #A8B4C6",
"|. c #AEBACC",
" X c #B4BBC7",
".X c #B1BCCE",
"XX c #AFBDD2",
"oX c #B1BED1",
"OX c #BBC3CE",
"+X c #BFC8D5",
"@X c #C1CBD7",
"#X c #C6D0DC",
"$X c #CAD4DF",
"%X c #CDD5E2",
"&X c #CED9E6",
"*X c #CEDAE8",
"=X c #D1DBE7",
"-X c #D2DCE9",
/* pixels */
"                                              .   .   .   .   .     .         . O .   .   . .   .                               ",
"  * 9 9 8 8 9 9 -   @ # @ @ @ @ # # @ @ @ @ O   a a a q 0 0 g 0 g g q q %   # @ # # # # # # # # @ #   # 9 9 9 9 9 9 9 9 9 9 *   ",
"  k 8.8.8.8.8.8.U   u.d.s.s.d.s.f.d.s.d.d.d.* + 8.8.8.8.8.8.8.8.8.8.8.8.a . d.d.f.f.d.f.s.s.d.d.s.P.O 4 8.8.8.8.8.8.8.9.8.8.x   ",
"  x 8.8.8.8.8.8.U   u.d.d.d.s.d.s.f.f.s.d.d.& O 8.8.9.8.8.8.8.8.8.8.8.8.a O d.d.f.s.f.f.s.d.s.s.d.d.O 4 8.8.8.8.8.8.8.8.8.8.x   ",
"  x 8.8.8.8.8.8.I   p.d.s.F.d.d.f.s.f.f.s.s.& + 8.8.8.8.8.8.8.8.8.8.8.9.a o s.s.f.f.f.f.d.s.d.d.s.d.O 4 8.8.8.8.8.8.8.9.8.9.x   ",
"  k 8.8.8.8.8.8.I   a.d.d.s.d.d.f.P.f.f.d.d.& + 8.8.8.8.8.8.8.8.8.9.8.8.a o d.s.f.f.f.f.F.d.P.P.d.F.O 4 8.8.8.8.8.8.8.9.8.8.x   ",
"  x 8.8.8.8.8.8.I   u.d.P.d.d.d.d.d.d.d.d.s.& X 8.8.8.8.8.8.8.8.9.8.9.8.a   P.P.d.d.d.d.d.d.d.d.d.d.O 4 8.9.8.8.9.9.9.9.8.8.x   ",
"  x 8.8.8.8.8.8.I   p.d.P.d.d.I.d.s.I.P.P.d.& . 8.8.8.8.8.8.8.8.8.8.8.9.a   d.d.d.I.d.I.d.d.d.d.d.d.+ 4 9.8.8.0.9.9.9.9.9.8.x   ",
"                                                                                                              .                 ",
"  0 ' ' ` ' _ ` _ ' } | | } } U   8 8 9 9 8 2 & 8 9 9 9 9 .   ; - - - - ; * ; - ; - -   % T T T T E I P P P P x - # ` ` ` ` a   ",
"  _ d.s.I.I.U.U.Y.R.Y.I.R.R.I.9.$ q.t.t.t.t.8.8.8.8.8.8.8.-   P.d.d.d.s.f.s.a.f.s.s.d.O - 8.8.8.8.8.8.8.8.:.8.8.0 = d.s.s.d._   ",
"  _ d.>.p r r r r r r u r u r e > r e e 5 e p.8.8.8.8.8.8.-   d.d.F.d.s.f.f.f.f.s.s.I.  - 8.8.8.8.8.8.8.8.8.8.9.9 = d.d.s.d._   ",
"  E d.$.<.'.'.[.`.`.`.].].`.`.`.].`.`.'.`.f p.8.8.8.8.9.8.-   d.d.d.d.F.d.f.f.f.d.s.d.O * 8.8.8.:.8.8.8.8.8.8.8.9 * d.P.d.s._   ",
"  _ d.r.O.oXXXoXoX.XoXoXoXoXXXoXoXoXoXoX[.r p.8.8.9.8.:.8.-   d.f.s.s.s.f.f.s.s.s.d.d.O - 8.8.8.8.8.8.8.8.8.8.8.q = d.d.s.d._   ",
"  _ d.R.u <.W.!.Q.A.c.c.c.c.c.c.!.!.!.J.! ^ 8.8.8.8.8.8.8.-   s.f.s.s.s.f.f.f.a.s.a.s.O = 9.8.8.8.8.8.8.8.8.8.8.9 = d.s.d.d._   ",
"  z |  .e.^ r 7 6 5 , < 5 5 , 5 , 5 w u ( I j q k k k k k #   h j h j h a 9 h h h h g   % _ _ _ _ _ _ _ _ _ _ _ : %  . . .| k   ",
"                  f i A.A.A.2.1                                                                   .                             ",
"  h [ [ [ [ [ [ x d p A.A.A.2.6 w.u.q.u.u.q.P . } } } } } } } } } } } } 4 & q.q.q.q.q.q.q.q.q.q.q.q.- ; [ [ [ [ [ [ [ [ [ [ h   ",
"  z 8.8.8.8.8.8.E f p A.A.A.2.1 d.s.d.s.d.d._ + 8.8.8.8.8.8.8.8.8.8.8.8.8 - d.s.d.P.f.f.d.f.f.f.d.s.2 8 8.8.8.8.8.8.8.8.8.8.x   ",
"  z 8.8.8.8.8.8._ f p A.A.A.2.1 d.a.s.d.d.F.T + 8.:.9.8.:.8.8.8.8.8.8.8.9 - a.s.f.d.f.f.f.f.d.f.s.s.2 8 8.8.8.:.8.8.8.8.8.8.x   ",
"  z 8.8.9.8.8.8._ d i A.A.A.2.5 d.d.s.s.d.P.E + 8.8.8.8.8.8.8.8.8.8.8.9.8 ; a.d.f.f.f.f.f.f.f.f.s.d.2 4 8.8.8.9.9.8.8.8.8.8.z   ",
"  x 8.8.:.8.8.9.) d p A.A.A.2.5 f.s.d.d.T.7.L m 4.p.9.8.8.8.8.8.:.8.8.8.8 - s.s.f.f.f.f.f.f.f.f.d.s.2 8 8.8.8.8.8.8.8.8.9.8.P   ",
"  z 8.8.8.8.8.9._ d s A.A.A.2.5 f.d.E.L t %.C.J.%.w b i.e.8.8.8.8.8.8.8.8 ; a.s.s.s.f.d.d.f.d.d.s.d.2 4 8.8.8.8.8.8.8.8.8.8.z   ",
"  : j j j j j j 9 d s A.A.A.2.< x >.5 1.@X=X=X=X=X+XV.b 1 $./ h j j j j & # E E E E E U x I I P I P $ % h j j j h j j j j j 2   ",
"    + + + + + + + f y A.A.A.2.5 K 1 ~.=X&X=X=X=X=X&X&X&X^.~ 1 Z f + + . + X + + + + + .   O . + + X + + X + + +     + + + + O   ",
"  z 8.8.8.8.8.8.8.y.b A.A.A.2.5 6 !.=X=X=X=X=X=X=X=X=X&X=X=X X1.e s F.I.s.d.d.d.f.f.d.g ; :.8.8.8.8.8.8.8.8.8.8.q * f.d.d.d._   ",
"  x 8.8.8.8.9.8.9.p.b A.A.A.*.1 %.=X&X=X=X=X=X=X=X=X=X=X=X=X=X=X#XH.n w 7.T.s.d.d.s.f.h ; 8.8.8.8.8.8.8.8.8.8.8.9 * s.s.d.s._   ",
"  x 8.8.9.8.8.8.8.y.b A.A.A.n 5 +X=X=X=X=X=X=X=X=X=X=X=X=X=X=X-X-X-X=X(.~ 1 ^ T.d.s.f.a ; 8.8.8.8.8.8.8.8.8.8.8.9 * s.s.s.d._   ",
"  x 8.8.8.8.8.8.9.y.d A.A.m.1 O.=X=X&X&X=X=X=X=X=X=X=X=X=X=X=X=X=X=X=X-X=X X3.6 s F.R.a ; 8.8.8.8.8.8.8.8.8.8.8.9 * d.P.d.d._   ",
"  k 8.8.8.8.8.8.9.q.e 2.A.Q 5 ..J.#X&X&X=X=X=X=X=X=X=X=X=X=X=X=X=X-X=X=X&X&X&X%XJ.m 1 ( K 8.:.8.8.8.9.8.0.8.8.8.9 * d.P.s.s._   ",
"  x 8.8.8.8.8.8.8.8.r.5 S w y oXA.~ v.OX=X=X=X=X=X=X=X=X=X=X=X=X=X=X=X=X=X=X=X-X=X=X~.~ 5 L p.8.8.8.:.8.8.8.0.8.q * d.P.d.d._   ",
"  $ : : : 2 2 2 3 3 8 R ! 1 o.oXOXOX'.&.o.(.=X=X=X=X=X=X=X=X=X=X=X=X=X=X=X=X=X=X=X=X=X=XOX5.t e ( a 4 8 a q q q # X q 8 4 8 &   ",
"  & 8 4 8 8 8 8 -   @ + % 1 K.XXoXXXoXoX|.m...m.@X=X=X=X=X=X=X=X=X=X=X=X=X=X=X=X=X=X=X=X=X=X$XJ.m 5 Z i ; - ; ; # + $ # @ @     ",
"  _ d.s.f.f.f.f.|   } 9.y.w '.XXoXoXoXoXoXoXoX^.o.<.{.=X-X=X=X=X=X=X=X=X=X=X=X=X=X=X=X=X=X=X=X=X-X].O.5 L T.s.d.d.d.d.d.s.d.a   ",
"  _ f.I.d.P.d.f.|   } 9.u.1 '.XXoXoXoXoXoXoXOXXX.X[.c.X.L.$X*X-X=X=X=X=X=X=X=X=X=X=X=X=X=X=X=X=X=X&X=XOX5.r m D.U.P.d.d.d.d.0   ",
"  _ d.f.f.f.f.f.}   } 9.e.1 ).|.oXoXoXoXoXoXoXoXoXoXoX.XK.X.5. X=X=X=X=X=X=X-X=X=X=X=X=X=X$X].H.%...Q A Q ~ W Z r $.T.P.P.s.0   ",
"  E d.d.f.f.s.f.;.  } 9.9.M V.XXoXoXoXoXoXoXoXoXoXoXoXoXoXoX'.1.O.~.%X=X=X=X=X=X=X=X&X].X.w 1 6 e w V F D w p N t e p s G.d.0   ",
"  _ d.d.s.P.d.F.;.  } 8.9.6.~ XX[.'.oXoXoXoXoXoXoXoXoXoXoXoX.XoX|.H.~ c.+X=X=X=X=X{.N 1 M M d l H Z v x.M.V J A.A.Z.*.s 7.s.0   ",
"  _ d.d.P.d.d.d.-.  } :.9.D.1 ).}.&.X.W.oXoXoXoXoXoX.XoXoXoXoXoX.XoXXX_.&.&._.=XV.1 v l.D d H H H H c x.M.G e A.A.A.Z.d T.d.0   ",
"  . O + + + + + +           J n ]..X}.c.~ n.{.oXoXoXoXoXoXoXoXoXoXoXXX.XoX{.n.Z 1 G x.k.b l H H H H d j.M.#.w A.A.A.*.5 o       ",
"  8 x I P I x I U E I x U x ' H p C.|.|.OXW...2._.oXoXoXoXoXoXoXoXoXoXoXoX.XOXN C M.z.c l H H H H H b j.M.g.5 A.A.Z.p >.T ) 9   ",
"  _ d.s.d.s.s.s.f.F.s.d.s.s.s.{ K e p 2.'.XXXX'.&.o.Q.oXoXoXoXoXoXoXoXoXoXXX[.1 h.M.l.c H H H H H H p z.B.@.e A.A.A Y Y.s.d.]   ",
"  _ d.s.s.d.d.s.d.s.s.d.s.f.f.'   :.S.H 5 ..!.XXoX|.C.~ n.oXoXoXoXoXoXoXoXoXK.5 z.x.F f H H H H H H b M.M.D N Z.W 6 R.d.s.d.]   ",
"  _ d.s.s.f.f.f.s.d.s.s.f.s.f.]   | 9.9.F.=.1 Z m.}..XoX[.oXoX|.oXoXoXoXoXoXb.y x.M.B H H H H H H H B z.z.c W N r l d.P.d.d.]   ",
"  E d.d.f.f.f.f.f.f.f.s.s.s.s.'   ;.9.8.8.:.t.7.y y 1.`.XX|.XXZ.X.K.oXOXXXXX*.M x.B.M H H H H H H b j.M.l.5 5 ( l ; s.d.s.d.]   ",
"  _ I.d.f.f.s.I.f.P.I.d.P.d.d.]   | 9.8.9.9.9.9.q.y.L , ..Q.OXOX|.!.oXK.[.XX*.v x.M.M H H H H H H B M.M.+.e p.9.q ; f.d.P.f.]   ",
"  P q.q.0.q.e.0.q.0.0.q.q.0.0.U   z P P P P I T _ ` ' ,.( 1 n V.{.oXOX)./.oXc.c x.z.B Z H H H H c k.M.z.w :._ _ ; & q.e.q.0.E   ",
"                                                          * L e t *.'.oXXXoXW.5 z.z.#.b H H H p j.M.N.V r +                     ",
"  k ;.| ;.;. .;.P   3 8 9 9 9 9 4 8 8 8 9 9 &   T U U U T x l E 4.A , ~ !..X|.w @.z.M.M s s c k.M.M.#.> >.I I I x z I T I I &   ",
"  _ d.s.d.s.s.s.]   ] 9.9.9.9.8.8.8.9.9.9.9.8 + d.s.d.s.f.f.f.f.P.s.E.>.5 n m.o.t z.z.M.h.j.M.M.z.#.1 L d.f.d.d.s.s.f.s.s.s.0   ",
"  _ d.d.s.d.d.s.]   ] 9.8.8.:.8.8.8.8.9.8.8.4 + d.s.s.d.d.d.s.d.s.d.P.a.$ H f r w M M.M.B.B.N.N.+., m $ d.f.d.d.f.s.f.f.s.s.0   ",
"  _ d.s.s.d.s.s.]   ] 8.8.9.8.8.:.9.8.8.9.8.9 O d.d.s.s.F.d.s.d.d.F.a.a.@ . 8.y.^ 6 w +.j.g.F t u y.. % d.d.s.d.f.f.f.f.d.d.0   ",
"  _ d.d.d.d.s.d.]   ] 9.9.8.8.9.8.8.8.8.9.9.8 + d.d.d.s.s.d.d.d.d.d.d.s.+ O 8.8.9.y./ s 6 e K r.8.8.. $ d.d.d.d.s.s.d.d.s.d.q   ",
"  _ d.P.s.I.d.s.]   ' 9.:.8.8.8.8.8.8.8.8.9.8 + d.d.P.s.d.s.d.F.d.P.s.d.@ . 8.8.9.8.9.9.8.8.9.9.8.8.. # s.d.F.P.P.d.s.s.s.F.0   ",
"  a _ _ _ _ ' _ g   2 4 4 4 4 4 ; 4 4 4 4 4 $   - - ; - ; - - a q a q a o   & % % & = % - 4 4 4 8 8   . ; - - - - ; q q q q #   ",
"                                                                                                                                ",
"  T d.d.d.s.a.d.d.a.s.d.s.d.a._   } 9.8.8.9.8.8.8.9.8.9.8.#   d.P.d.P.d.d.d.d.d.d.d.s.O - 8.8.8.8.8.8.8.8.8.8.8.9 & d.d.d.a.]   ",
"  _ d.s.s.d.s.f.s.d.d.s.s.d.d.'   -.9.9.8.8.8.9.8.8.8.8.8.+   d.d.s.d.s.I.s.d.s.s.d.d.O - 8.8.8.8.8.8.8.8.8.8.8.9 & f.F.d.d.]   ",
"  _ d.d.s.d.d.d.s.d.d.d.d.d.d.'   -.8.8.8.8.9.8.9.8.8.8.8.+   d.F.d.d.d.f.f.s.s.s.s.P.  = 8.8.8.8.8.8.8.8.8.8.8.9 & f.d.d.s.]   ",
"  _ d.s.d.s.d.d.d.F.d.d.d.d.F.'   ;.9.8.9.8.8.8.8.8.8.8.8.#   f.d.d.d.s.f.d.F.d.s.s.I.. - 8.8.8.8.8.8.8.8.8.8.8.q & f.d.s.d.]   ",
"  _ d.s.P.d.F.d.d.d.s.d.d.d.s.'   -.9.8.8.8.8.8.9.8.8.8.8.@   f.f.d.f.f.f.d.f.f.d.d.d.O = 8.8.8.8.8.8.8.8.8.8.8.9 & d.F.s.d.]   ",
"  _ d.d.d.d.d.d.d.d.d.d.d.d.f.]   ;.8.8.8.8.8.8.8.8.8.8.8.+   f.d.d.d.f.d.d.d.d.d.d.I.. = 8.8.8.8.8.8.8.8.8.8.8.9 - d.s.d.d.]   ",
"  : h h a h h a a h a h h a a 4   . . . . . . . . . . . O     X + + X X X X + + X X X   @ 9 9 9 9 9 8 8 9 9 9 9 $ + z k z j 3   ",
"                                                                                                                    o     . . + "
};
