/* XPM */
static char *result[] = {
/* columns rows colors chars-per-pixel */
"64 64 188 2 ",
"   c #010101",
".  c #080706",
"X  c #050906",
"o  c #0A0906",
"O  c #060608",
"+  c #080709",
"@  c #050B09",
"#  c #0B0B0B",
"$  c #120E0C",
"%  c #04110B",
"&  c #0B140D",
"*  c #15100E",
"=  c #0F0F10",
"-  c #0B1710",
";  c #151313",
":  c #191615",
">  c #131C17",
",  c #1D1917",
"<  c #171719",
"1  c #1C1B1C",
"2  c #211A17",
"3  c #221D1B",
"4  c #0D2318",
"5  c #142D1E",
"6  c #25211E",
"7  c #2A211E",
"8  c #1E1F21",
"9  c #1F2024",
"0  c #142F21",
"q  c #143322",
"w  c #173625",
"e  c #252423",
"r  c #2A2322",
"t  c #2E2925",
"y  c #262629",
"u  c #27282B",
"i  c #2C2B2D",
"p  c #322724",
"a  c #312A26",
"s  c #392C23",
"d  c #352D29",
"f  c #3A2F2D",
"g  c #2E302D",
"h  c #36302B",
"j  c #3B312E",
"k  c #2E2E31",
"l  c #2F3233",
"z  c #343334",
"x  c #3D3331",
"c  c #363835",
"v  c #3E3833",
"b  c #36353A",
"n  c #38373C",
"m  c #3C3C3D",
"M  c #402E24",
"N  c #403634",
"B  c #443B36",
"V  c #443A39",
"C  c #4A3E3A",
"Z  c #17442F",
"A  c #1B442C",
"S  c #1E4E35",
"D  c #1E5037",
"F  c #1E5539",
"G  c #254F39",
"H  c #225237",
"J  c #245439",
"K  c #225C3D",
"L  c #45413E",
"P  c #4E413E",
"I  c #51423F",
"U  c #584338",
"Y  c #654D37",
"T  c #3E3E42",
"R  c #413F44",
"E  c #3D4041",
"W  c #275E43",
"Q  c #266142",
"!  c #2D6545",
"~  c #2C6C4B",
"^  c #307B54",
"/  c #434244",
"(  c #4B4442",
")  c #4D4946",
"_  c #46454A",
"`  c #48474C",
"'  c #4B4A4D",
"]  c #544641",
"[  c #564944",
"{  c #5A4B46",
"}  c #504D4B",
"|  c #5E514C",
" . c #4E4D52",
".. c #504F55",
"X. c #535153",
"o. c #5D5855",
"O. c #57565C",
"+. c #58575D",
"@. c #5A595E",
"#. c #614F4B",
"$. c #62534D",
"%. c #645551",
"&. c #655A53",
"*. c #6B5A54",
"=. c #715F57",
"-. c #6D645F",
";. c #75635B",
":. c #79665F",
">. c #7B685E",
",. c #5D5C62",
"<. c #6D6461",
"1. c #676568",
"2. c #65646A",
"3. c #776460",
"4. c #7B6660",
"5. c #736A66",
"6. c #796C68",
"7. c #6D6C72",
"8. c #706F75",
"9. c #717177",
"0. c #7F7473",
"q. c #806251",
"w. c #93745D",
"e. c #826E67",
"r. c #836E68",
"t. c #857067",
"y. c #86736C",
"u. c #89746E",
"i. c #847975",
"p. c #887874",
"a. c #8A7B76",
"s. c #8B7D7B",
"d. c #957E75",
"f. c #A47D63",
"g. c #2F8258",
"h. c #34855B",
"j. c #36895F",
"k. c #368C61",
"l. c #3B8962",
"z. c #389365",
"x. c #3C996B",
"c. c #429C6C",
"v. c #41A46E",
"b. c #43A571",
"n. c #44AC76",
"m. c #46AD78",
"M. c #43B177",
"N. c #45B479",
"B. c #49B07D",
"V. c #8D817C",
"C. c #92827C",
"Z. c #9F877C",
"A. c #9F897E",
"S. c #AF846B",
"D. c #A1877D",
"F. c #A0887E",
"G. c #B08B70",
"H. c #BC9377",
"J. c #7D7B82",
"K. c #7F7D88",
"L. c #4FBF84",
"P. c #4CC285",
"I. c #4EC488",
"U. c #4ECF8F",
"Y. c #51C386",
"T. c #52CD8E",
"R. c #51D08D",
"E. c #53CE90",
"W. c #53D091",
"Q. c #86858C",
"!. c #88878F",
"~. c #89888F",
"^. c #9A8984",
"/. c #9E8B84",
"(. c #898791",
"). c #8A8991",
"_. c #A18780",
"`. c #A48B83",
"'. c #A18F88",
"]. c #A4918B",
"[. c #A9948D",
"{. c #A89690",
"}. c #ECB891",
"|. c #F5BE96",
" X c #F5BF9A",
".X c #F8C096",
"XX c #F6C19A",
"oX c #F8C19A",
/* pixels */
"                            .   O .   .   O . .             .   X     . . .   .   O                                             ",
"  , d d d d d d d d d d $   * * $ * * * * $ * * * *   : x x j x v j v j j j j j   O * * $ $ $ $ $ $ $ $ $ #   3 d d d d d d ,   ",
"  I e.e.e.e.e.r.e.e.e.e.t @ F.F.D.F.D.D.F.F.F.F.`.].i : 1 ] V.r.e.e.e.r.e.e.e.e.+ , D.F.F.F.F.A.F.F.D.F.^.d.  [ e.e.e.e.e.e.I   ",
"  P e.e.t.6.r.r.e.e.e.e.t X F.F._.D.D.D.F.F.F.`./             m y.e.e.e.e.e.e.e.o 1 _.D.F.F.A.D.F.F.F.F.`.d.  [ e.e.e.r.e.e.P   ",
"  I ] y 5.a.t.r.e.e.e.e.p @ D.D.`.D.D.D._.D.D.(   + n X.X.n =   V r.r.r.e.t.t.e.+ 1 _._.D.D._._.D._.D.D.D.d.  { e.e.e.e.e.e.C   ",
"  I         + ) p.u.e.e.t @ D.D.D.D.D.`._._./.  # X.O.O.O.,.X.+   s.r.r.e.e.t.e.+ 1 F.D.D.D.`.`.D.D.D.^.D.d.  [ e.e.e.e.e.e.I   ",
"  P     ~ q                                                                                       ; v &.^.d.  [ e.e.e.e.e.e.I   ",
"  P     T.T.I.l.H                 .             O                       O           O   .                   l | q.e.e.e.e.e.I   ",
"        T.T.T.T.T.    XXoXXXXX    T.T.T.T.T.    H.oXXX|.XXXXXXH.    E.E.T.T.T.T.T.T.T.T.E.T.T.T.T.I.m.k.D @     T               ",
"  N     T.T.T.U.T.    XXXXoX|.    U.T.T.T.T.    H.XXXXXXXX X|.H.    T.T.T.T.T.T.T.T.T.T.T.T.T.T.T.T.T.T.W.Y.Q     ) $.%.%.%.j   ",
"  $.    T.T.P.j.D     s XX|.s                                       T.T.T.T.T.T.T.T.T.T.T.T.T.T.0 . 4 G c.U.E.v.&   %.^.D.D.$.  ",
"  $.  . ~ q             oXoX                    +             O     T.T.T.T.T.T.T.T.T.T.T.T.T.E.q         q M.T.N.-   s.F.D.$.  ",
"  |       . . m p.C.    XXXX    e.e.e.2 O Z.    @.O.O.O.O.O.O.@.    T.T.T.T.T.T.T.T.T.T.T.T.T.T.T.P.b.~ o   X v.T.v..   [._.$.  ",
"  $.X.r 6.]., d e.e.    XXXX    e.e.t.2 O A.<    .O.@.O.O.O.O. .  @ T.R.T.E.T.T.T.T.T.T.T.T.T.T.T.T.T.T.P.Z   @ n.U.K   &.Z.$.  ",
"  $.F.D.`.F.2 f e.e.    XXXX    e.t.e.2 O F.o.  k O.O.O.O.O.O.k   X Z Z ~ v.E.T.T.T.T.T.T.T.T.T.T.T.T.T.T.T.A   q R.P.X   [.$.  ",
"  C >.>.4.q.: r $.$.    XX X    %.$.%.:   N o.    k  .O.@. .i               4 ! m.T.T.T.T.T.T.T.E.T.T.T.T.T.P.%   x.T.S   i.C   ",
"                                              T                 i ..,.,.T =       5 g.I.T.T.T.T.T.T.T.T.T.E.E.!   F T.k.  z     ",
"  B *.;.;.*.*.;.=.=.            u.u.u.u.u.u.u.a.;         O y 2.!.!.!.).!.!.2.;       % W L.T.T.T.T.T.T.T.T.T.b.  4 T.n.  z N   ",
"  I e.e.e.e.t.r.e.e.    ).~.    _.F.D.D.[.<.+     < _ J.).).).).).).).(.(.!.0.    ..1     o h.T.T.T.T.E.T.T.T.Y.  @ E.P.  ; I   ",
"  I e.e.r.e.t.6.e.e.    !.).    F.`.^.d       i 2.).).!.!.).).).J.+.z # # b k   z !.!.y       h.T.T.T.T.T.T.E.T.    T.T.    P   ",
"  I e.e.e.t.6.t.e.e.    X.k     <.+     . _ J.!.).).).).Q.2.T 1 O               u 8.0.X   R   X B.T.T.T.T.T.T.T.    T.T.    P   ",
"  I e.e.e.e.e.e.e.e.                k =   7.!.!.).9. .y           u ' i   0 q       =   i !.k   G T.T.T.T.T.T.T.    T.T.    P   ",
"  I e.e.e.e.e.e.e.e.+   k  .9.1   @.!.E   m 7.m =         8 / 2.Q.!.!.,.  q T.M.K @     y !._   + T.T.T.T.T.T.T.q q R.P.  # P   ",
"  r V V V V B V V V z   ,.).)./   / ).@.            i @.K.).!.!.!.J.+.i     P.E.T.I.^ %   1       v.T.T.T.T.T.T.T.U.T.B.  y 7   ",
"    # # # #   O + + /   & 9.Q.,.  < 1       5 R j   ' !.Q.Q.2.T <           j.T.U.T.T.^     + 1   ~ T.T.T.T.T.U.T.T.T.j.  z     ",
"  $.D.D.F.F., d e.e.e.)     , <       = } [.D.D.].  e ' e O       X u ' n   J W.T.T.E.N.    9.,.  w R.T.T.T.T.T.T.T.T.S   p.I   ",
"  $.F.F.A.A., h e.e.t.e.5.o     + | V.6 v D.F.D.D.          1 T 2.Q.Q.).8.  & T.T.T.T.U.4   1.1.  . I.E.T.T.T.T.T.T.L.X   d.I   ",
"  $.F.F.F.Z.2 h e.e.e.e.t.e.C.C.t.e.e.6 N F.F.F.F./   y @.K.).).).!.K.@.b     b.T.T.T.T.W   <       z.T.T.T.T.T.T.T.K   ) e.I   ",
"  $.F.F.`.Z., h r.e.r.e.r.e.e.6.r.r.e.3 j F.F.F.F.V.  / ).!.Q.2.R <           ~ E.T.T.T.x.      7   W T.T.T.T.T.T.v.    ^.e.C   ",
"  $.F.F.D.D.2 d e.e.e.e.r.e.r.r.e.r.e.6 N F.F.Z.F.{.  <  .y         O u ' '   5 W.T.T.T.T.X   S.G.  4 T.T.T.U.T.N.&   5.6.e.I   ",
"  $.D.F._.D., d r.r.e.e.e.e.r.r.r.r.6.6 N D.D.D.F.F.#         1 T 2.Q.).Q.@.    P.T.T.T.T.A   w.}.. O P.T.T.T.v.-   ( u.e.e.I   ",
"  , a a a f + ; x x j x a r a a t a s o : v v N N N /   e O.J.).).J.X.i O       h.T.T.U.W.F   U .Xj   j.T.P.Q .   z d 7 7 6 :   ",
"    = * * * $ * 6 6 6 6 X   # $ $ $ $   . $ $ $ $ # m   z ).7._ 1         1 y     q ~ x.z.    f.|.q.  w D @     X.h a a a a ,   ",
"  f D.D.Z.D.D.F.D.D.D.F.7 * t.r.t.e.e.e.e.e.e.e.t.r.6                                       Y |.XXf.        l a.D.F.F.F.F.D.$.  ",
"  f D._.F.D.F.F.D.D.F.A.7 > e.e.e.e.e.e.e.e.e.r.r.e.#                             ' 5.) 3   s f.M     m p.y.  3.F.F.F._._.D.$.  ",
"  f F.A.F.A.F.A.F.A.Z.Z.r , e.r.e.e.e.e.e.e.6.r.e.e.l   < O.O.O.O.O.O.O.O.O.O.    e r.e.u.1   .   ; 6.y.e.:.  3.F.F.F.F.F.D.$.  ",
"  f D.F.F.F.F.F.F.A.D.Z.r < r.e.e.e.e.e.e.e.r.e.r.e.G   y O.O.O.O.O.O.O.O.O.O.    3 e.e.e.C.V ( V.u.e.r.e.;.  3.F.F.F.F.A.D.$.  ",
"  f F.F.F.F.F.F.F.F.A.D.6 < r.e.e.e.e.e.e.r.e.e.e.r.V   n O.O.O.O.O.O.@.O.O.O.    6 e.e.e.e.6.e.e.e.e.r.e.;.  3.F.F.F.F.F.D.$.  ",
"  x F.F.F.F.F.F.A.F.F.F.r , e.e.e.e.e.e.r.e.e.e.r.e.e   _ O.O.O.O.O.O.O.O.O.O.    3 e.e.e.e.r.e.e.e.r.r.e.;.  3.F.F.F.F.Z.D.$.  ",
"                            O X . + .     . O . O . O   O.O.O.O.@.O.O.O.O.O.O.                                + # # # # + . .   ",
"  f #.#.#.| * $ 6 6 6 6 7 r d h d d d # $ j j j j B   ; @.O.O.O.;     ; @.O.O.    , 2 2 , 2 ,   h [ [ [ I [ | { I [ I [ I U h   ",
"  *.F.F._.A.3 d e.e.t.r.e.t.e.e.r.e.e.3 r F.F.F././.  1 O.O.O.n         O.O.O.    6.e.e.t.6.3.  &.A.A.A.F.A.A.A.F.F.A.A.F.F.$.  ",
"  *.F.F.A.Z.3 h r.e.r.e.r.r.6.e.e.r.e., 7 F.F.F.F.a.  k O.O.O.#   c     O.O.O.    e.e.e.r.r.3.  &.D.F.F.F.F.F.A.F.F.F.F.F.F.$.  ",
"  *.F.F.F.Z.6 d e.e.e.e.e.e.t.e.r.e.e.3 r F.F.F.D.o.  T O.O.n   z       O.O.O.    r.e.e.r.t.3.  &.D.F.F.F.F.F.A.F.F.F.F.F.D.$.  ",
"  *.F.A.`.A.3 h r.r.r.r.e.e.e.e.e.e.e.3 7 A.D.A.D.3    .O.O.+   '.      O.O.O.    e.e.e.e.t.;.  &.F.F.F.A.F.F.A.F.F.F.F.F.D.$.  ",
"  *.F.F.A.A.3 h r.r.r.t.t.r.r.r.r.e.e.3 r Z._.Z./.    O.O.@.    D.  <   ' +.O.O   y.e.r.r.t.:.  &.F.F.F.F.A.F.`.`.F.F.F.F.F.$.  ",
"O { u.u.u.u., 7 $.$.$.$.$.] { { { { [ ; 1 *.*.*.*.    O.O.O.    >.  L   z O.O.<   -.] ] [ ] P   { u.u.u.u.u.u.y.u.u.u.u.u.u.I   ",
"                                                      O.O.O.        c   8 O.O.u   m                   .                         ",
"  , [ [ [ [ P I [ [ [ [ # . j N x x x d f x v j x     O.O.O.    { B |   + O.O.n   m d a a d a r a d a d d r   ] 3.>.3.4.>.4.P   ",
"  j A.Z.F.F.F.F.F.F.F.F.; . e.e.e.r.e.e.r.r.r.e.e.    O.O.O.    A.A.A.r   ` @._   e e.r.e.r.r.e.r.r.e.e.r.*.  *.D.D.A.F.F.D.$.  ",
"  f Z.F.A.F.F.F.F.F.F.F.; . e.e.e.e.e.e.r.6.e.t.r.    O.O.O.    F.F.F.5.  z @.O.    r.r.e.r.e.r.e.e.r.e.r.*.  *.A.D.A.F.Z.D.$.  ",
"  f F.A.D.A.F.F.F.F.F.F.; . e.e.e.r.e.r.e.e.e.e.e.    O.O.O.    A.F././.  8 O.O.;   a.r.r.e.r.e.e.r.e.e.r.*.  *.F.A.F.F.F.D.$.  ",
"  f Z.D.Z.A.Z.F.F.F.F.F.; . r.r.e.e.e.e.e.e.e.e.e.    O.O.O.    F.F.F.`.  @ @.@.e   a.r.r.r.r.e.r.6.e.e.r.*.  *.F.F.F.F.F.D.$.  ",
"  f /.Z.^.A.F.D.F.D.F.F.$ . r.e.e.e.e.e.r.r.e.6.r.    O.O.O.    A.F.A.`.r   ` O.z   <.r.e.e.e.e.e.e.r.r.e.&.  *.D.F.F.`.F.F.$.  ",
"  ; f j j j 6 3 3 3 3 3 O   p a t t t 3 : , , , :     O.O.O.    j 3 3 3 /   b O./   k a t t t 6 t a t t t 6   N $.$.$.%.$.$.x   ",
"                                                      O.O.O.            b   8 O.X.  O                                           ",
"  %.Z.D.Z.D., d e.e.e.e.e.e.e.e.e.e.e.2 . D.D.F.s.    O.O.O.    F.  $ t.-.  + O.O.#   u.r.r.:.  $.Z.Z.D.D.Z.Z.D.D.Z.Z.D.Z.D.#.  ",
"  *.D.F._.D.2 h e.e.e.r.e.e.e.e.e.e.e.2 O Z.[.+     < O.O.O.    F.  g #     < O.O.1   V.t.r.3.  &.D.D.Z.Z.D.Z.F.F.A.F.F.D.D.$.  ",
"  *.F.F.^.D., h e.e.r.e.e.e.e.4.e.e.e.3 O A.P   1 _ O.O.O.O.    `.  y   1 _ O.O.O.i   0.e.r.:.  *.A./.D.D.Z.F.F.F.F.A.F.Z.D.$.  ",
"  *.F.Z.D.D., d e.e.e.e.e.e.e.e.e.e.e.3 O Z.X   X.O.O.O.O./   e A.      O.O.O.O.O.9   i.r.r.:.  &.F.Z.Z.Z.`.F.F.F.F.F.F.F.D.$.  ",
"  *.`.D.`.F., d e.e.e.e.e.e.e.e.e.e.e.2 O Z.                  V.F.                  + u.e.r.3.  &.F.F.F.D.D.F.F.F.F.A.D.A.D.$.  ",
"  *.D.D.F.D.3 d e.e.e.e.e.e.e.e.e.e.e.2 O `.}             y V.Z.D.  z           O P p.e.e.e.3.  *.D.D.D.D.D.D.D.D.D.D.D.D.D.$.  ",
"  r C C C C # * d s d d d d s d d d d #   + o o o o o o o o # + o     . . O O . . . . . . . .   r v N N v N N v N N N N N N 7   ",
"o . O   O                                                                                                                       "
};
